<svg xmlns="http://www.w3.org/2000/svg" viewBox="0 0 188.89 131.39"><defs><style>.cls-1{fill:#231f20;}.cls-2{fill:#d92d27;}</style></defs><title>NDN_logo</title><g id="Layer_2" data-name="Layer 2"><g id="Layer_1-2" data-name="Layer 1"><path class="cls-1" d="M4.16,127.71c-.54-.72-1-1.38-1.49-2.08h0c0,.82,0,1.66,0,2.48v3.12H0v-9.75H2.6L5.19,125c.53.73,1,1.39,1.49,2.09l0,0c0-.82,0-1.65,0-2.47v-3.13H9.35v9.75H6.75Z"/><path class="cls-1" d="M16.27,121.49h2.8a7.56,7.56,0,0,1,4.58,1.12,4.52,4.52,0,0,1,1.67,3.77,4.58,4.58,0,0,1-1.39,3.52c-1,.87-2.46,1.34-4.8,1.34H16.27Zm2.88,7.41c1.77,0,2.48-.35,2.9-.85a2.61,2.61,0,0,0,.5-1.67,2.32,2.32,0,0,0-.84-2,4.28,4.28,0,0,0-2.57-.55h-.09v5.06Z"/><path class="cls-1" d="M36,127.71c-.54-.72-1-1.38-1.5-2.08h0c0,.82,0,1.66,0,2.48v3.12H31.87v-9.75h2.6L37.05,125c.54.73,1,1.39,1.5,2.09l0,0c0-.82,0-1.65,0-2.47v-3.13h2.66v9.75H38.62Z"/><path class="cls-1" d="M64.66,130.81a6.77,6.77,0,0,1-2.83.58c-3.27,0-5.46-2.18-5.46-5s2.27-5,5.46-5a6.71,6.71,0,0,1,2.7.56v2.72a5.2,5.2,0,0,0-2.64-.81,2.53,2.53,0,0,0-2.75,2.54,2.56,2.56,0,0,0,2.8,2.58,5.22,5.22,0,0,0,2.72-.85Z"/><path class="cls-1" d="M76.15,121.34a5,5,0,1,1-5.21,5A5.06,5.06,0,0,1,76.15,121.34Zm0,7.56a2.53,2.53,0,1,0-2.44-2.53A2.46,2.46,0,0,0,76.15,128.9Z"/><path class="cls-1" d="M88,121.49h2.78v7.41h4.06v2.34H88Z"/><path class="cls-1" d="M101.14,121.49h2.77v7.41H108v2.34h-6.84Z"/><path class="cls-1" d="M114.32,121.49h6.36v2.35H117.1v1.23h3v2.21h-3v1.62h3.74v2.34h-6.52Z"/><path class="cls-1" d="M135.43,130.81a6.77,6.77,0,0,1-2.83.58c-3.27,0-5.47-2.18-5.47-5s2.28-5,5.47-5a6.66,6.66,0,0,1,2.69.56v2.72a5.14,5.14,0,0,0-2.64-.81,2.53,2.53,0,0,0-2.74,2.54,2.56,2.56,0,0,0,2.8,2.58,5.25,5.25,0,0,0,2.72-.85Z"/><path class="cls-1" d="M144.45,123.84h-3.1v-2.35h9v2.35h-3.09v7.4h-2.78Z"/><path class="cls-1" d="M156.56,121.49h2.78v9.75h-2.78Z"/><path class="cls-1" d="M165.4,121.49h3l1.35,3.81c.28.81.55,1.59.81,2.37h0c.27-.79.57-1.63.85-2.39l1.39-3.79h2.86l-3.73,9.75h-2.79Z"/><path class="cls-1" d="M181.71,121.49h6.35v2.35h-3.58v1.23h3v2.21h-3v1.62h3.75v2.34h-6.52Z"/><path class="cls-2" d="M146.58,50.3l-.1-.13s-.06.1,0,.15,0,.08.09.12ZM100.13,9.83s0,0,0,0,0,.05,0,.06,0,0,0,0Zm50,53.26,0,0,.11.11Zm0,0v-.32a.26.26,0,0,0-.27-.28C150,62.65,149.87,63,150.12,63.07ZM136.26,20.23s0,0,0,0,0,.06,0,.08h0A.21.21,0,0,0,136.26,20.23Zm-1.64.64a1.31,1.31,0,0,0,.21,1A1.36,1.36,0,0,0,134.62,20.87ZM90,.73a.58.58,0,0,0-.21.3A.44.44,0,0,0,90,.73Zm3.38,1.94a.33.33,0,0,0,.32-.16.39.39,0,0,0,0-.38.27.27,0,0,0-.34-.07c-.18.1-.21.16-.18.35A.29.29,0,0,0,93.34,2.67Zm-6.76-.38c-.12,0-.13,0-.1.13S86.59,2.37,86.58,2.29ZM85,1.11a.4.4,0,0,0,.29.24.5.5,0,0,0,.46-.05.67.67,0,0,0,.16-.12A2,2,0,0,0,86,.93c0-.17,0-.38-.07-.58a1,1,0,0,1-.15-.11.64.64,0,0,0-.33-.16L85.15,0c0,.05-.08.15-.15.18a.35.35,0,0,0-.21.29.83.83,0,0,0,0,.35C84.82.92,84.92,1,85,1.11ZM94.05,7a.5.5,0,0,1,0,.13,1.52,1.52,0,0,1,0,.21,1.64,1.64,0,0,1,.05.37,1.35,1.35,0,0,0,.17.72.3.3,0,0,0,.28.18,1.26,1.26,0,0,0,.28-.05.51.51,0,0,0,.41-.42s0-.09,0-.14a.73.73,0,0,0,.06-.3l-.08,0c-.17,0-.21-.09-.16-.26s0-.07,0-.09-.06-.29-.13-.42a1.34,1.34,0,0,0-.13-.27.41.41,0,0,0-.7,0l0,0a.33.33,0,0,1-.24.2A1.33,1.33,0,0,1,94.05,7Zm1.08.85v.08h0l0-.09Zm4.8,1.88a.12.12,0,0,0,.09-.14.11.11,0,0,0-.14-.08.1.1,0,0,0-.08.14A.1.1,0,0,0,99.93,9.69ZM84.5,2.78c-.06,0-.1-.06-.13,0s-.05,0-.07.08.06.06.09.06S84.45,2.83,84.5,2.78ZM95.6,1.32a.37.37,0,0,0,0-.11s0,0-.07,0,0,0,0,.06S95.56,1.28,95.6,1.32ZM82.65,7.45l.06-.12c-.09,0-.09,0-.09.1Zm6.22,23.36h0l0,0Zm0,0-.21.22C88.74,31,88.84,31,88.84,30.83Zm0,0,0,0s0,0,0,0Zm-.48.85v-.2h0C88.38,31.53,88.39,31.6,88.39,31.66ZM84,36.85l.09-.11H84Zm9.85-12.57,0,.18h0C93.87,24.4,93.87,24.34,93.86,24.28Zm-5.47,7.18c.2-.05.23-.19.2-.35l-.21.35ZM79.71,59.37l0,.14h0A.53.53,0,0,1,79.71,59.37Zm8.88-28.26h0l0-.05,0,0S88.58,31.1,88.59,31.11Zm-7,10.54h0l0-.07ZM84.34,36v.33C84.55,36.19,84.42,36.08,84.34,36Zm-2.77,5.68a0,0,0,0,0,0,0l0,0ZM90.29,22.1l-.42,1C90.22,22.87,90.23,22.84,90.29,22.1Zm-8,18.54s0,0-.05-.07l0,.08c0,.05,0,.11.05.16h0A.94.94,0,0,0,82.26,40.64Zm0,.16h0c-.16,0-.33,0-.41.16s-.18.42-.27.62l.32-.36C82.05,41.09,82.18,41,82.3,40.8Zm7.93-8.62v0h0l.19-.4h0v0l0,0Zm-6.31,4.56h0l0,0Zm.18,0h.05l0,0Zm5.74-13.62,0,.06,0,0ZM84.15,36.74v-.07l0,0Zm0-.07.16-.33h-.16Zm.16-.33h0v0h0Zm5.74-3.8.17-.33h-.17Zm0-.33v0l0,0h0Zm-6.11,4.51,0,0,0,0Zm5.9-13.6,0,0v0ZM80,75.23s0,.06,0,.09.08,0,.09-.08a2,2,0,0,0,0-.24h0A2.34,2.34,0,0,0,80,75.23Zm70.11-12.14,0,0v0ZM75.74,70.83s0,0,.05.07a.12.12,0,0,1,0-.08.75.75,0,0,1,0-.15h0A1,1,0,0,0,75.74,70.83ZM55,73.54a.63.63,0,0,0,0,.12l0-.15S55,73.53,55,73.54Zm118.55-53.3h0v0h0Zm0-.12h0c0-.08,0-.17,0-.26s0-.19,0-.29,0-.11,0-.16,0,0,0,0,0-.09,0-.13l-.06-.16a.18.18,0,0,0-.08-.09C173.41,19.36,173.49,19.74,173.56,20.12Zm.81,4.27a.36.36,0,0,0,.06.28Zm-.79,2.88,0,.05h0l0,0Zm.66-11.69a.06.06,0,0,0,.06-.05s0-.07-.05-.07a.06.06,0,0,0-.07,0A.09.09,0,0,0,174.24,15.58Zm.23,9.46h0l0-.28A.31.31,0,0,0,174.47,25Zm.11-7.94v0h0v0Zm0-.22s0,0,0,0l0,0a0,0,0,0,0,0,0ZM149.84,62.45c0-.07,0-.14,0-.22h0l0,.22h0ZM173.35,18.8h0l-.05,0,0,.09ZM170,31.19s-.12,0-.12.09a.2.2,0,0,0,0,.13,1.47,1.47,0,0,0,.1-.13S170,31.22,170,31.19ZM171,19.62s0-.05.07-.09a.93.93,0,0,0-.05-.1.08.08,0,0,0-.13,0c-.06,0-.05.11,0,.17S171,19.63,171,19.62ZM171,15h0v0Zm-1.07,16.46s0,0,0-.05v0l0,0Zm3.46.45s0,.07.06.07,0,0,.06-.06,0-.07-.06-.07A.05.05,0,0,0,173.34,31.91Zm-.16-13.48c0,.09,0,.14.06.2S173.29,18.48,173.18,18.43Zm1.44,6.73v-.07c-.06,0,0,.05,0,.07Zm-2.69,1.49s-.06,0-.08,0h.08Zm1.21-8.39a.57.57,0,0,0-.07-.22h0l.07.22ZM67.06,85.56c0,.09,0,.15.06.2C67.18,85.66,67.15,85.61,67.06,85.56Zm11.66-9.9A13,13,0,0,0,80.13,75l-.21-.1.1,0-.12-.08v0h0v0a10.67,10.67,0,0,0-2.14.93,7.89,7.89,0,0,1-1.25.58c-1.45.58-2.92,1.13-4.38,1.72a3.57,3.57,0,0,1-1.63.3c.17-.29.3-.54.45-.81l.33.36a1.49,1.49,0,0,1,1-1c.48-.17.78-.72,1.37-.67,0,0,.1-.08.14-.13A4.49,4.49,0,0,1,76,74.87a1.11,1.11,0,0,0,.77-.72c-.45.2-.74.32-1,.46a5.12,5.12,0,0,1-1,.52,4.75,4.75,0,0,0-1.35.56c-.23.12-.45.26-.69.37a.29.29,0,0,1-.27,0,.27.27,0,0,1-.11-.24,2.82,2.82,0,0,1,.79-1.56L73,75a.45.45,0,0,0,.3-.24c.19-.41.34-.84.55-1.24.46-.82.94-1.63,1.43-2.43a2.15,2.15,0,0,1,.51-.43h0c0-.4.29-.64.43-1,.71-1.58,1.45-3.14,2.15-4.72a4,4,0,0,0,.54-1.56.67.67,0,0,1,.2-.43c.26-.23.11-.47.1-.72s.18-.48-.07-.7l-.58.65a21.41,21.41,0,0,1,1.2-2.73h0a.9.9,0,0,0-.48.46c-.25.46-.51.91-.78,1.36a1.16,1.16,0,0,1-.25.29.2.2,0,0,1-.18,0c-.08,0-.19-.14-.19-.2a.93.93,0,0,1,.1-.47c.34-.59.55-1.23.87-1.84A20.19,20.19,0,0,0,80.12,56c.12-.37.37-.7.52-1.06s.2-.74.37-1.08c.46-.94.92-1.89,1.45-2.79a29.19,29.19,0,0,0,1.89-4.19c.06-.16,0-.38,0-.54a3.44,3.44,0,0,1,.39-.55s0-.07,0-.1c.3-.61.6-1.23.91-1.84.06-.11.13-.29.22-.31a.81.81,0,0,0,.61-.8,4.16,4.16,0,0,1,.72-1.48,8.86,8.86,0,0,0,.54-1,7.12,7.12,0,0,1,.86-1.64,16.67,16.67,0,0,0,1.46-2.77c.27-.59.52-1.19.8-1.86-.52-.18-.36-.57-.17-.94s.49-.84.73-1.27c0-.06,0-.15,0-.3-.78.89-1.84,2.75-1.68,3L90.4,34c0,.24,0,.4-.09.46a1.16,1.16,0,0,1-.5.29,1.18,1.18,0,0,0-.8.66s-.16,0-.31,0c.21-.51.39-1,.59-1.41.09-.2.24-.39.34-.59s.27-.59.4-.89h0v-.07l0,0a.27.27,0,0,1,0-.38,1.17,1.17,0,0,1,.33-.87l.09.43a.73.73,0,0,0,.18-.17l1.15-2.29-.34-.5a2,2,0,0,0,.39-.38c.32-.56.61-1.15.93-1.71a14.4,14.4,0,0,0,1.12-2.26h0A1,1,0,0,0,93,24.4c-.39.64-.82,1.35-1.24,2.06,0,.06,0,.18,0,.27s0,.12,0,.18a.29.29,0,0,0,0,.09s-.06-.06-.06-.09a.67.67,0,0,1,0-.19,6.94,6.94,0,0,0-.58.76c-.33.56-.62,1.13-.93,1.7a2,2,0,0,1-1,1.09.47.47,0,0,0-.32.54c.11.1.24.21.16.39a11.21,11.21,0,0,1-1.49,2.72c-.38.45-.72.93-1.05,1.41A8.31,8.31,0,0,0,86,36c-.2.41-.33.85-.51,1.27a.83.83,0,0,0,0,.75.45.45,0,0,1-.13.53,13.7,13.7,0,0,0-1.8,2.79,3.64,3.64,0,0,0-.45.75,1.91,1.91,0,0,1-.5.8,2,2,0,0,1-.82.66c-.13,0-.21.23-.31.34-.37.39-.51,1-1,1.26a1.71,1.71,0,0,1,.33-.84c.14-.29.29-.56.43-.84l-.32-.42c0,.06.05.11.07.16l0,.09-.07-.08c0-.05,0-.1,0-.16a2.59,2.59,0,0,0,.72-1.4,1.09,1.09,0,0,0-.26.21l-1.77,3c-.08.13-.18.26-.37.21l1.67-3c.38-.68.79-1.34,1.17-2,.54-1,1-1.95,1.59-2.92a2.94,2.94,0,0,1,.35-.44l.19-.38h0v0h0l0,0h0l.21-.4v0h0c.28-.66.57-1.31.85-2a20.41,20.41,0,0,1,1.6-3.25c.73-1.12,1.32-2.33,2-3.5l1.67-3a3.57,3.57,0,0,1,.41-.55A3.24,3.24,0,0,0,91.46,22l-.09,0a.27.27,0,0,0-.08.07l-1.61,2.46-.09.05s0,0-.06-.05l.29-1.37c-.19.23-.36.54-.6.62a1,1,0,0,0-.61.66c-.16.38-.34.75-.52,1.12a1.31,1.31,0,0,1,.24-.17c.11-.05.23-.08.37-.13.12.33-.08.54-.22.73a13.16,13.16,0,0,0-1.23,2,2,2,0,0,1-.34.42.92.92,0,0,1,.06-.33c.28-.57.56-1.15.89-1.69a1.4,1.4,0,0,0,.22-.81,7.16,7.16,0,0,0-.83,1.32c-.2.5-.63.89-.66,1.47l.29.08c0,.21-.08.43-.13.64s-.14.23-.13.34c0,.81-.54,1.34-.89,2-.08.15-.17,0-.19-.11-.24.07-.32.27-.43.48-.47.93-1,1.84-1.46,2.76-.07.14-.13.31-.38.25,0-.08,0-.18,0-.25.35-.84.72-1.68,1.09-2.52a4.93,4.93,0,0,0,.31-.71c.08-.31.2-.64-.14-1-.6.49-.75,1.39-1.57,1.79a10.35,10.35,0,0,1,.93-1.92L83.48,30l-.31-.18c-.09.22-.16.4-.24.57l-.4.34-.15-.41c-.2.37-.35.65-.51.93s-.27.52-.42.77a17.52,17.52,0,0,0-1.63,3,3.14,3.14,0,0,1-.44.75,1.33,1.33,0,0,0-.34.9,3.77,3.77,0,0,1-.45,1.87c-.16.36-.33.71-.52,1.12l.51.12a.66.66,0,0,0-.34.61c.6-.6.81-1.47,1.43-2a17.92,17.92,0,0,1-.78,1.79c-.46,1-.93,1.95-1.36,2.94a12.69,12.69,0,0,1-1.31,2.07c-.23.32-.5.6-.7.93-.5.85-1,1.7-1.44,2.57a2.36,2.36,0,0,0-.33,1,2.56,2.56,0,0,1-.41,1.17c-.13.26-.26.53-.41.78a17.33,17.33,0,0,1-1.68,3,.79.79,0,0,0-.15.25,10.46,10.46,0,0,1-1.77,2.51,1.84,1.84,0,0,1,.18-.53c.35-.78.71-1.55,1.07-2.32a.84.84,0,0,0,.13-.61,7.21,7.21,0,0,1-1.22,1.42h0v0l0-.55h0v0h0l0,.58a1.61,1.61,0,0,0-.71.75,45.71,45.71,0,0,0-2,4.58l.49-.18c-.2.46-.41.92-.58,1.4a28.09,28.09,0,0,1-2,4.29,2,2,0,0,0-.3.72,4.74,4.74,0,0,1-.84,2.06,21.9,21.9,0,0,0-1.66,3.45,3.3,3.3,0,0,1-.63,1.2c-.12-.06-.33,0-.32,0,0,.34-.38.32-.45.59a3,3,0,0,1-.32.7s-.1,0-.23.07a6.85,6.85,0,0,1,.39-1.33,4.67,4.67,0,0,0,.56-1.86,1.45,1.45,0,0,1,.14-.57c.52-1.2,1-2.4,1.56-3.61a28,28,0,0,0,1-2.7,4.53,4.53,0,0,0-1,1.74,6.54,6.54,0,0,1-1.4,2.33.82.82,0,0,0-.22,1s0,.12-.06.18l-.39.09a5.94,5.94,0,0,1-.83,1.85c-.08.1-.16.23-.34,0a1.61,1.61,0,0,0,.12-.33c.07-.35.23-.67,0-1s.2-.42.26-.6c-.18-.22-.44-.39-.48-.61a21.59,21.59,0,0,1-.52-2.89c.27,0,.27.18.37.28a.3.3,0,0,0,.25.07.32.32,0,0,0,.19-.19,1.62,1.62,0,0,0,0-.49c-.14-.71-.29-1.41-.44-2.11a3.19,3.19,0,0,0-.14-.35l-.45.28a.15.15,0,0,1,0,.07l-.18.28c-.06-.06-.15-.12-.17-.19a4.9,4.9,0,0,1,0-.54l.17,0a3.44,3.44,0,0,0-.23-1.53,7.55,7.55,0,0,1-.6-1.73,1.69,1.69,0,0,0-.35-.87c-.13-.12-.15-.36-.2-.55-.22-1-.41-2-.66-3A54.13,54.13,0,0,1,55.06,50c0-.1-.1-.25.13-.3a3.27,3.27,0,0,1,.47,1.24l.64.17a.92.92,0,0,0,0-.3c-.09-.2-.22-.38-.33-.58.21-.26-.13-.49,0-.75a.74.74,0,0,0,0-.39c-.25-1.18-.49-2.37-.77-3.55-.2-.9-.46-1.78-.69-2.67s-.41-1.72-.64-2.57-.29-1.79-.51-2.68a6.61,6.61,0,0,1-.17-2.14c.05-.53.28-1.13,0-1.63s-.19-1.12-.56-1.63a9,9,0,0,1-.79-1.77l-.27.48L51,29.75c-.08-.22-.15-.43-.23-.64a8.58,8.58,0,0,1-.38-1A23.25,23.25,0,0,0,48.85,24a.6.6,0,0,0-.55-.42l-.13.81a.73.73,0,0,1-.22,0l-.23-.05-.47.54c-.14.18.16.46-.17.64A6.58,6.58,0,0,0,46.7,25a.25.25,0,0,0-.41,0,.27.27,0,0,1-.22.07c-.23-.08-.46-.19-.76-.32a2.83,2.83,0,0,0,.53,1.59,1,1,0,0,0-.33,1,3.27,3.27,0,0,1,0,.45l-.33-.11-.09.32c-.16-.26-.33-.52-.49-.79a.71.71,0,0,0-1-.3,1.55,1.55,0,0,0-.81.84c-.07-.12-.15-.24-.32-.5a1.75,1.75,0,0,0-.07,1.09,2,2,0,0,1,.16,1l-.33.13q.19,1,.39,1.89c-.2.14-.35.26-.25.5s.18.34.25.52,0,.12,0,.2l-.35.09a2.83,2.83,0,0,1-.61-1.08,7.22,7.22,0,0,0-.47-1,.76.76,0,0,0-.93-.37,1.05,1.05,0,0,0,.08.83,9.9,9.9,0,0,1,.81,2.31,5.36,5.36,0,0,0,.7,1.92.67.67,0,0,1,.12.36,3.44,3.44,0,0,0,.67,2,.43.43,0,0,1,.08.37c-.25.44,0,.81.17,1.13-.24.49-.29,1-.76,1.27a7.67,7.67,0,0,1-1.08,2.34l-.6.19c-.1-.06,0-.29-.32-.2a24.22,24.22,0,0,0-1,2.23v.65h0v-.66a2.33,2.33,0,0,0-.75,1,5.9,5.9,0,0,0-.46,1c-.07.44-.53.46-.66.79l-.11.27h0a6.23,6.23,0,0,0-.5.8C36.16,50,35.5,51,35,52.07a29.63,29.63,0,0,0-1.36,2.7.78.78,0,0,1-.52.5,5.49,5.49,0,0,1,.22-.75c.31-.75.66-1.49,1-2.26s.83-1.39,1.07-2.18a25.88,25.88,0,0,1,1.59-3.47,7.77,7.77,0,0,0,.33-.92,4.77,4.77,0,0,1,.61-.85,1.19,1.19,0,0,0,.21-.44c0-.13.07-.33-.18-.37a1.86,1.86,0,0,0-.52.9c-.16.36-.58.52-.68.93a6,6,0,0,1-.86,1.85c-.3.46-.57.95-.9,1.39a3,3,0,0,0-.63,1.3A1.18,1.18,0,0,1,34,51a2.37,2.37,0,0,0-.37.56c-.15.29-.27.6-.42.88a.29.29,0,0,1-.42.1c.19-.55.36-1.11.59-1.63a10.58,10.58,0,0,0,.69-1.76A2.86,2.86,0,0,0,33,50.48c-.19.33-.3.72-.49,1.05-.26.49-.61.93-.85,1.43q-1,2.13-2,4.29c-1.33,3-2.65,6.06-3.76,9.18-.18.49-.23,1-.43,1.49-.64,1.51-1.09,3.08-1.65,4.62-.4,1.11-.77,2.23-1.17,3.34-.74,2.1-1.48,4.2-2.25,6.29-.51,1.41-1.07,2.81-1.6,4.22-.4,1.07-.83,2.14-1.2,3.22a1.46,1.46,0,0,0,.36,1.6c.6-.16.6-.16.75-.41s.2-.35.67-.26a2.62,2.62,0,0,1,1.45-.77l0,0a.38.38,0,0,0,.38-.06h.12c-.08.23-.16.43-.23.64h0a.52.52,0,0,0,.42-.37,2.34,2.34,0,0,1,1.26-1.36,3.41,3.41,0,0,0,1.58.29,6.38,6.38,0,0,1,.14-1,.28.28,0,0,0,.21,0c.2,0,.34-.17.32-.32a.35.35,0,0,0-.31-.31,2.19,2.19,0,0,1,.25-.37l.86.55a4.32,4.32,0,0,0-.28.66c-.09.3-.36.31-.56.44s0,.18,0,.28A2.64,2.64,0,0,0,24.37,90a10.18,10.18,0,0,1-.78,1.36,9,9,0,0,0-.66,1.51,1.36,1.36,0,0,1-.26.41,1.2,1.2,0,0,0-.34,1.07H23l.11.57.76-.35a9.62,9.62,0,0,0,1-2.89,1.4,1.4,0,0,1,.14-.37c.58-1.38,1.19-2.76,1.74-4.16a2.54,2.54,0,0,1,1.39-1.43,1.49,1.49,0,0,0,.85-.87,1.86,1.86,0,0,1,.66-1A4.18,4.18,0,0,0,31,82.32l.29-.59a.46.46,0,0,0,.15-.2.29.29,0,0,0,0-.13c.23-.46.44-.92.65-1.39.51-1.17,1-2.36,1.48-3.53.84-2,1.94-3.78,2.67-5.78.64-1.75,1.54-3.39,2.18-5.15a13,13,0,0,1,.68-1.41c.4-.78.82-1.55,1.21-2.33.25-.5.44-1,.69-1.51.51-1,1-2,1.56-2.95a7.23,7.23,0,0,0,.42-.89,2.1,2.1,0,0,1,.4-.77,1,1,0,0,0,.18-1.15c-.09.06-.22.11-.27.2-.46.73-.89,1.46-1.34,2.18a1.81,1.81,0,0,1-.37.31c0-.19-.06-.3,0-.38.47-1,.95-2,1.43-3,.21-.44.4-.89.61-1.33.13-.26.22-.6.44-.74a.55.55,0,0,0,.29-.54,1.88,1.88,0,0,1,.36-1.16,5.74,5.74,0,0,0,.46-1c0-.05.1-.08.17-.15l.65.26c.49-.28,0-.77.34-1.12a2.36,2.36,0,0,1,.44,1.36l.33.08v0h0a.77.77,0,0,0,0,.15.44.44,0,0,0,.07.2c.18,1.4.77,6.14.52,5.8a3.32,3.32,0,0,0-.1.68c.07.68.17,1.36.28,2,0,.35.14.7.2,1s.07.71.55.81c.13,0,.09.42.35.39.44-.05.36.24.41.48l-.57.08a3.73,3.73,0,0,1,.56.52,6.44,6.44,0,0,1,.3.72c.06.11.15.24.26.27.37.13.46.43.55.75s.2.83.35,1.22a5.93,5.93,0,0,0,.78,1.55,2,2,0,0,1,.48,1.32c0,.13-.07.29,0,.39a7.43,7.43,0,0,1,.59,2.17c.28,1.53.93,3,.82,4.61a.51.51,0,0,0,0,.24h0l0,0a.66.66,0,0,0,.45.28l0-.21h0c-.08-.54-.14-1.06-.25-1.56a48.46,48.46,0,0,0-1-4.78,2.7,2.7,0,0,1-.09-.48,2.67,2.67,0,0,1,.17-1c.22.76.44,1.44.62,2.13s.3,1.41.47,2.11.25,1.37.45,2.07c.49-.37.49-.37,1.07-.2.08.54.18,1.12.27,1.69h0l0,0h0c.16.09.38.16.45.3a4,4,0,0,1,.55,2.14l-.48.06a1.8,1.8,0,0,0,0,.39c.13.9.27,1.8.41,2.7,0,.16,0,.32-.19.36a1.28,1.28,0,0,0-.26-.34c-.1-.07-.24-.05-.29-.21a10.57,10.57,0,0,1-.67-2.54c0-.07-.08-.14-.19-.31a19.31,19.31,0,0,0,.48,3.28,3.92,3.92,0,0,1,.15,1,3.25,3.25,0,0,1-.2.77l.39.07h0c-.29.12-.65.06-.92.33a3.75,3.75,0,0,0,.39,1.4.8.8,0,0,1,.1.46,8.83,8.83,0,0,1-.24,2.61s0,.12,0,.22l.62-.16c0,.62,0,.62-.46,1.25h0c.45.06.45.06.46.49a.28.28,0,0,0,0,.09c-.13.09-.31.17-.32.27a3.32,3.32,0,0,1-.17,1.25s0,.06,0,.13.18.11.3.16a.57.57,0,0,0,.19,0l.28-.46a.62.62,0,0,0,.12-.19l.1-.17.06.75a.91.91,0,0,1,.84.7,3.39,3.39,0,0,0,.44.87,2.32,2.32,0,0,1,.42,1.09s.1,0,.15,0a2.41,2.41,0,0,1,.48-2.18,1,1,0,0,0,.11-.27c.05-.17.15-.21.28-.17l-.06.07a3.06,3.06,0,0,0-.15.4A1.92,1.92,0,0,0,59,92c.07.12.11.16.2.16a.59.59,0,0,1-.12.2,1.36,1.36,0,0,1,.27.19l.14.14s0,0,0,0a1.62,1.62,0,0,0,0,.9.05.05,0,0,0,0,0c.06.1.14.13.23.06a3.14,3.14,0,0,0,.32-.31l0,0c.1.15.14.16.28,0l.12-.12.2.1,1,.52.78-.9.38.5a1.51,1.51,0,0,0,.65-1,3.67,3.67,0,0,1,.64-1.28,4.81,4.81,0,0,0,1.09-1.78.48.48,0,0,1,.14-.26,5.9,5.9,0,0,0,.8-1.43,2.72,2.72,0,0,0,.6-1.61c0-.13.13-.29.22-.43a9.27,9.27,0,0,0,.84-2c.08-.22.15-.43.23-.64A.21.21,0,0,0,68,83v0a6.81,6.81,0,0,1,.47-1.07,1.26,1.26,0,0,0,.15-.66,2.05,2.05,0,0,1,.77-1.71.93.93,0,0,1,.58-.16c-.4.3-.41.78-.56,1.2h0a19.08,19.08,0,0,0-1,2.71h0c-.07.06-.16.11-.19.19-.26.73-.55,1.46-.75,2.21,0,.18-.19.35-.26.53a.12.12,0,0,0,0,0c0,.06,0,.15,0,.23a.48.48,0,0,0,.12.35c-.32.3-.1.92-.66,1.1-.07,0-.1.21-.12.33s.06.27,0,.37c-.2.48-.42,1-.63,1.43a.28.28,0,0,0,0-.13,5,5,0,0,0-.16-.67,3,3,0,0,0,.08,1l-.32.71c-.12.26-.36,0-.5.13s-.23.53,0,.8c-.1.26-.3.51-.19.82l.08.06.36.14,0,0v0h0c.26,0,.49-.22.38-.35a.71.71,0,0,1,0-1,15.85,15.85,0,0,0,1.64-3.33c.43-1,.75-2,1.09-2.94.24-.7.52-1.38.79-2.06l.08-.07a.08.08,0,0,1,0,0c.28-.7.56-1.41.78-2.14a5.61,5.61,0,0,1,.88-2c.47-.12.95-.2,1.41-.36L77,76.84a1.66,1.66,0,0,0,.64-.42A2.57,2.57,0,0,1,78.72,75.66Zm-.58-12.84V63l0-.13Zm6-18.37c-.16-.15,0-.27,0-.37.27-.55.54-1.1.83-1.64.1-.19.25-.29.49-.1A12.85,12.85,0,0,1,84.14,44.45Zm3.53-7.8v0l0,0Zm.27-.94a.83.83,0,0,1,.17-.15l.1.18-.2.11C88,35.8,87.92,35.73,87.94,35.71Zm1.76-.4s.09,0,.14.07-.08.11-.12.12l-.31,0A1.64,1.64,0,0,1,89.7,35.31Zm-.31.17a1.18,1.18,0,0,1,.23.27c.12.24,0,.35-.39.49Zm-.28,1.19-.38.5C88.7,37,88.73,36.79,89.11,36.67Zm-.4.55a1.83,1.83,0,0,1-.55.76C88.2,37.46,88.33,37.24,88.71,37.22Zm.85-4.15,0-.06h.07Zm1.88-5.48h.12a.94.94,0,0,1,0,.16s0,0-.08,0A.75.75,0,0,1,91.44,27.59Zm-1.29,2.67a5.54,5.54,0,0,1,1.18-1.74c0,.14.07.22.09.3a6.61,6.61,0,0,0-.91,1.62c-.11.3-.33.35-.61.21A3.22,3.22,0,0,0,90.15,30.26Zm-.25.4A1.51,1.51,0,0,1,90,31c0,.32-.1.44-.49.44C89.76,31.23,90,31,89.9,30.66Zm-.37.82a.67.67,0,0,1-.24.9Zm-1,1.68c.15-.31.32-.63.7-.72a3.83,3.83,0,0,1-.64,1.37c-.14.26-.35.48-.24.81a.28.28,0,0,1-.09.24A6.62,6.62,0,0,0,87,37.11a4.47,4.47,0,0,1-.35.69c-.07.1-.23.13-.37.18ZM86.23,38c.07.2.09.38-.27.53C86.08,38.34,86.16,38.19,86.23,38Zm-2.75,5a4.19,4.19,0,0,0,.83-1.43c.37-.83.82-1.63,1.24-2.44,0-.1.16-.17.31-.32,0,.17.09.27.07.33-.51,1.19-1.21,2.29-1.68,3.5-.13.34-.5.58-.76.86l-.17-.09C83.37,43.28,83.38,43.1,83.48,43Zm-3.1,2.21,0,.12-.07-.08Zm-.53.87c.16.22-.11.26-.1.45C79.56,46.28,79.77,46.22,79.85,46.09Zm3.26-15.6s0,.1,0,.15-.1,0-.12-.06a.33.33,0,0,1,0-.15A.67.67,0,0,1,83.11,30.49Zm-1.06,6.68a2.41,2.41,0,0,1,.21-.24l.09.07-.15.28s-.08,0-.09,0S82,37.2,82.05,37.17Zm-.57.34,0,.07,0,.07-.07-.09ZM81,38.75l.05.06-.07,0-.08,0Zm-.47,1.1s0,0,0,.06,0,.17,0,.25A1.1,1.1,0,0,1,80.4,40S80.45,39.9,80.49,39.85Zm-.4.48c.1-.23.27-.19.45-.14h0l-.63.33v0C80,40.46,80.05,40.41,80.09,40.33Zm-1.52-1c0,.17,0,.34,0,.51C78.46,39.63,78.34,39.46,78.57,39.28Zm0,0,.07-.12,0,.1Zm.53,6.32a.4.4,0,0,1-.34.36c.12-.27.23-.54.35-.82A2.34,2.34,0,0,1,79.14,45.56Zm-.33-3.85c.13,0,.26.09.09.31Zm.51-.91,0-.22,0,.22c-.11.11-.21.22-.33.32a.47.47,0,0,1-.2.06A.46.46,0,0,1,79.32,40.8Zm-.57.45,0,.41C78.58,41.53,78.62,41.39,78.75,41.25Zm0,4.73c0,.15,0,.28-.14.35C78.69,46.21,78.73,46.09,78.78,46Zm-.19.42-.12.38A.32.32,0,0,1,78.59,46.4Zm-.46.67c.08-.12.13-.28.32-.24-.14.29-.29.57-.41.86s-.32.23-.51.29C77.88,47.78,77.92,47.37,78.13,47.07Zm-.63,1.47V48A.43.43,0,0,1,77.5,48.54Zm0,.09-.39.56C77.11,49,77.13,48.68,77.45,48.63Zm-.47.72-.09.35A.45.45,0,0,1,77,49.35Zm-.12.42-.08.14,0-.12Zm-.29-3.85,0,.07,0,.06a.21.21,0,0,1,0-.07ZM73.14,74.16a.38.38,0,0,1,.13-.4A.39.39,0,0,1,73.14,74.16ZM73.75,51s.11,0,.22,0l-.42.65c0-.09-.06-.15,0-.18S73.66,51.12,73.75,51Zm-.62,22s.1,0,.1,0a1.23,1.23,0,0,1,0,.27c.22-.4.43-.8.65-1.19a5.59,5.59,0,0,1,.33-.47s.06,0,.09,0a5.08,5.08,0,0,1-1,2.07c0-.14,0-.28-.05-.42a1.51,1.51,0,0,1-.11-.22S73.13,73,73.13,73Zm-.5-19.41s0,.07,0,.11l0-.14S72.63,53.55,72.63,53.56Zm-.3,21a.43.43,0,0,1,.24-.52C72.63,74.28,72.62,74.29,72.33,74.54Zm.22-20.77c-.12.23-.25.45-.38.68C72.17,54,72.22,53.88,72.55,53.77Zm-.55.72s.08,0,.14,0l-.43.8A.83.83,0,0,1,72,54.49Zm-.13,20.76c.13-.24.13-.56.44-.67a3.68,3.68,0,0,1-.86,1.91A3.18,3.18,0,0,1,71.87,75.25ZM42.3,32.75a1.63,1.63,0,0,1,.39,1.2C42.51,33.57,42.22,33.22,42.3,32.75Zm.39-3.11s-.11-.05-.11-.08,0-.09,0-.14a.67.67,0,0,1,.09.14S42.7,29.61,42.69,29.64ZM32.42,53.92s-.06-.06-.05-.08a.61.61,0,0,1,.07-.17s.05.06.05.08S32.44,53.86,32.42,53.92Zm.42-1.14,0-.23h0l0,.23Zm.55,23s0-.06,0-.08,0,0,.06,0l0,.09Zm.43-1,0,0,.4-.24v0Zm.84-1.92.22-.23C34.87,72.76,34.84,72.88,34.66,72.85Zm.26-.36a1.06,1.06,0,0,1,.34-.78Zm.56-1.35c0-.13,0-.28.19-.32C35.67,71,35.67,71.11,35.48,71.14Zm.27-.4s0,0-.06,0a1,1,0,0,1,0-.35c.43-1.05.87-2.1,1.31-3.14,0-.07.12-.12.19-.18s.07.09.07.11A16.94,16.94,0,0,1,35.75,70.74ZM37.19,48l.32-.08C37.46,48.28,37.3,48.05,37.19,48Zm2.33-3.29a.33.33,0,0,1,0-.06l.07-.06Zm.13-.25a.91.91,0,0,1,.07-.14s0,.07,0,.08Zm1.16,14.57c-.08-.19-.16-.29-.13-.34.11-.23.25-.44.38-.66,0,0,.06,0,.09,0l.08.07Zm4.34-31c.17.05.2.18.19.34C45.11,28.4,45.16,28.22,45.15,28.08Zm.2.5s0-.08,0-.12l.1.09Zm.3-.52s-.11,0-.11-.07a.36.36,0,0,1,0-.14.53.53,0,0,1,.1.12S45.66,28,45.65,28.06Zm.14-1.48h0a2.17,2.17,0,0,0,.07-.24h0Zm1.38,21.66a.18.18,0,0,1-.1.15s-.14,0-.15-.07,0-.3,0-.47A.31.31,0,0,1,47.17,48.24Zm.18-.77a.27.27,0,0,1,0-.09s0,0,.06-.06,0,.07,0,.09S47.38,47.45,47.35,47.47ZM48,49.75s-.05-.09-.07-.14l.06,0a.52.52,0,0,1,.06.13S48,49.73,48,49.75ZM49,59l0-.07H49Zm.33-6.82s.06-.08.1-.12.1.08.09.12,0,.21-.06.31A1.69,1.69,0,0,1,49.29,52.19Zm1.05,2.53c-.59-.33-.59-.33-.67-.77s-.16-.94-.24-1.41c.14,0,.18.1.22.23a4.94,4.94,0,0,0,.7,1.77S50.35,54.66,50.34,54.72Zm.46,8a1,1,0,0,1-.08-.14s0-.06,0-.09.1,0,.1.08A.26.26,0,0,1,50.8,62.75Zm0,.09a5.29,5.29,0,0,1,.66,2.35A5.11,5.11,0,0,1,50.82,62.84Zm.92-31.16a.94.94,0,0,1-.06-.15s0,0,.06-.06l.06.15ZM53.68,53.1c.13.32.29.49.17.74C53.55,53.7,53.65,53.47,53.68,53.1Zm-.16-1a.41.41,0,0,1,0,.08s0,.05-.06.08a.14.14,0,0,1,0-.09A.13.13,0,0,1,53.52,52.15ZM52.87,67v-.42H53L53,67Zm1.35-7.5c-.14-.74-.23-1.48-.4-2.21-.24-1-.55-2.09-.78-3.15a39.76,39.76,0,0,1-.92-5.1,26,26,0,0,1,1.06,3.84,58.78,58.78,0,0,1,1.27,7.23A3.47,3.47,0,0,1,54.22,59.47Zm.45,13.39s0,0,0-.07,0,0,.05,0l0,.07Zm.07-14.29a11.16,11.16,0,0,1-.57-3.47,7.62,7.62,0,0,1,.67,2.21A2.94,2.94,0,0,1,54.74,58.57Zm1.14,15.92-.07-.1,0,0s0,0,0,.06Zm-.42,9.3s0,0-.07,0l0-.1.06,0S55.48,83.78,55.46,83.79Zm.21-.64c-.18-.22,0-.34.06-.48ZM57.3,73c-.23-.23-.11-.38,0-.53ZM57,71.15c0,.22,0,.45.08.67s.1.43.14.65a2.48,2.48,0,0,0-.39,0c.2-.14.14-.35.1-.52-.08-.33-.2-.66-.3-1A.28.28,0,0,1,57,71.15Zm-.37-.71h.08l-.08.48h0Zm0,13.82.07,0,0,0,0,0ZM56.32,81l.16,1.08-.13,0-.43-.85Zm-.53,9.12c-.2-.27,0-.55,0-.81l.4-.17C56.2,89.69,56.2,89.69,55.79,90.15Zm.37-3c0-.13-.06-.25-.08-.38s.1-.05.16-.07l.12.38Zm.64-1.41s-.1.08-.16.09a.67.67,0,0,1-.2,0,2.73,2.73,0,0,1,.17-1.25,1,1,0,0,0,.25-.22s.06,0,.06,0C56.89,84.87,56.85,85.31,56.8,85.76Zm0-12.89v-.42h0l.08.41Zm.21.8A2.35,2.35,0,0,1,57.43,75,1.4,1.4,0,0,1,57.05,73.67Zm.55-11.5.08-.05,0,.18Zm.18.93-.05-.71C57.91,62.56,58,62.74,57.78,63.1Zm.23.5s0-.05,0-.07l.05.15Zm1.75,27.63-.07,0,.08,0Zm7.56-31s0,.06,0,.08a.44.44,0,0,1-.08.11.2.2,0,0,1,0-.11S67.28,60.23,67.32,60.2ZM61.74,93.06l0-.07,0,.08Zm4.84-16.79-.1,0,.1-.08Zm0-.18,0-.12.08.08Zm.19-12.45c-.43,1-.87,1.91-1.3,2.86a2.57,2.57,0,0,0-.2.45A44.4,44.4,0,0,1,63,72.48c-.21.51-.42,1-.65,1.54-.14.29-.31.56-.47.84l-.15-.07a1.27,1.27,0,0,1,0-.39c.3-.76.51-1.55.88-2.28.45-.88.79-1.81,1.19-2.7.21-.47.51-.9.7-1.37.6-1.45,1.16-2.92,1.74-4.38,0-.09.1-.17.14-.25s.15-.22.31-.18S66.89,63.45,66.8,63.64ZM67,75.29a.28.28,0,0,1,.2-.42C67.17,75,67.11,75.14,67,75.29Zm.23-.51a.43.43,0,0,1,.09-.41Zm.15-.53c0-.22,0-.47.23-.62C67.68,73.89,67.68,73.91,67.41,74.25Zm0-12.17c-.16.31-.28.66-.75.76a5.43,5.43,0,0,1,.85-2h.08A1.66,1.66,0,0,1,67.45,62.08Zm.18-1.31c0-.17,0-.31.15-.38Zm.22-.49h0l0-.07S67.86,60.27,67.85,60.28Zm.42-.63,0-.14s0,.05,0,.08Zm.59-1.23,0-.08h.07Zm-.8,26.77s0-.06,0-.07,0-.11.07-.16a1,1,0,0,1,0,.17S68.09,85.17,68.06,85.19Zm.77-2c0-.13,0-.27.16-.3Zm.19-.35c-.06-.22,0-.38.27-.42Zm.27-.42h0l-.11-.48.11,0Zm.42-1.54-.23-.3.31-.13C70,80.6,69.72,80.68,69.71,80.85ZM70,79.37v0h0Zm0-.88A.34.34,0,0,1,70,78.4l.06-.06.05.07Zm-3.36,8.08a.28.28,0,0,0,.21.26C66.94,86.64,66.93,86.63,66.73,86.57ZM188.16,18.14h0l0,0h0Zm-3.54,1.16.08-.06C184.63,19.23,184.61,19.24,184.62,19.3Zm-128.27,61a.12.12,0,0,0-.08-.06s-.06,0-.11.08a.45.45,0,0,0,.13.06S56.35,80.33,56.35,80.31ZM169.84,31.45h-.13l0,.12Zm13.19.22v0l0,0v0ZM56.12,76.8l0-.07s0,0,0,0a.23.23,0,0,0,.07.1ZM85.61,30.72c0,.18,0,.36-.08.54h0a.06.06,0,0,0,0,0h0ZM180.39,22h0l0,0h0Zm-5.69-6.85,0,0h-.15C174.62,15.22,174.63,15.22,174.7,15.18Zm3.56,9.66h0Zm-1,2.05.09-.08C177.22,26.82,177.22,26.82,177.21,26.89Zm-.66-1.38c0-.05.08-.08.07-.15S176.58,25.38,176.55,25.51Zm.45-.85h0v.06h0S177,24.68,177,24.66Zm1.71-2.31,0,.07h0S178.74,22.39,178.71,22.35Zm1.57-.17h0l0,0h0Zm.07.39s0,0,0,.07l.05-.06Zm-.56.35h0v0h0Zm-5.27,2.34s0,0,0,0h0v0Zm-9.76,4.44a.14.14,0,0,0,.13,0,.3.3,0,0,0,.19-.24c0-.05,0-.1,0-.15a.09.09,0,0,0-.06-.07l-.1-.05a.19.19,0,0,0-.28.1,1.16,1.16,0,0,0,0,.18.06.06,0,0,0,0,0A1.37,1.37,0,0,0,164.76,29.7Zm.24,4.16c0,.06,0,.1.07.1a.09.09,0,0,0,.11-.1.08.08,0,0,0-.07-.1A.11.11,0,0,0,165,33.86Zm.25-9.73c0-.06,0-.12-.09-.12a.09.09,0,0,0-.1.09c0,.06,0,.12.09.12S165.24,24.19,165.25,24.13ZM165,20.84s0,0,0,0,0,0,0,0l0,0Zm.2,9.05a.07.07,0,0,0,.07-.07.08.08,0,0,0-.07-.08.06.06,0,0,0-.07.07A.07.07,0,0,0,165.24,29.89Zm-.05-7.15a.14.14,0,0,0,.15-.14.15.15,0,0,0-.14-.19.16.16,0,0,0-.16.15A.16.16,0,0,0,165.19,22.74Zm.45,4.1a.08.08,0,0,0,.1-.07.13.13,0,0,0-.07-.14.13.13,0,0,0-.13.11A.1.1,0,0,0,165.64,26.84Zm0-4.92,0,0s0,0,0,0v0Zm-.1,12.45a.15.15,0,0,0,0-.3.14.14,0,0,0-.16.12A.14.14,0,0,0,165.51,34.37ZM160.16,48.3a.59.59,0,0,0,.14-.06s0-.06-.05-.06a.94.94,0,0,0-.15.06S160.14,48.31,160.16,48.3Zm6.23-10.18c.12-.07.11-.15.05-.23s-.07.13-.11.2S166.38,38.13,166.39,38.12Zm-1.8-4.54a.1.1,0,0,0,.1-.08.08.08,0,0,0-.06-.09.09.09,0,0,0-.11.07A.1.1,0,0,0,164.59,33.58Zm-5.38,17.06c.25-.08.54-.23.49-.5s.13-.63.12-1c0-.12,0-.24,0-.38-.11.06-.2.07-.22.12a6.64,6.64,0,0,1-.53,1.11.42.42,0,0,0,0,.55A.24.24,0,0,0,159.21,50.64Zm3.24-6.88,0,.06h.05Zm-1.71,4a.52.52,0,0,0,0-.18l-.1-.11c-.06.06-.15.12-.17.2s.07.12.11.19S160.72,47.79,160.74,47.75Zm2.44-10.21a.05.05,0,0,0,.07,0,0,0,0,0,0-.05-.06s-.06,0-.07,0S163.15,37.54,163.18,37.54Zm.67,3.16h0v.06Zm-.4-19.3.09.11a.23.23,0,0,0,.15.1c.11,0,.19,0,.23-.17l0-.11s0-.09,0-.13,0,0,0-.06l0-.14a.16.16,0,0,0-.11-.13l-.11,0h-.07l-.17.08a.21.21,0,0,0-.09.23A.53.53,0,0,0,163.45,21.4Zm.34,15.92v0h0s0,0,0,0Zm5.82-14.75,0,0v0l0,0Zm-.49,2.56s0,0,0-.06,0,0,0,.05l0,0S169.12,25.14,169.12,25.13Zm-.6,10.09h0S168.52,35.2,168.52,35.22Zm.61,1.07s0-.09-.08-.12-.08,0-.09,0a2.71,2.71,0,0,0-.13.3l.12.06C169,36.46,169.08,36.38,169.13,36.29Zm.19-3.84s-.06.09,0,.12a.5.5,0,0,0,.08.12,1,1,0,0,0,0-.17A.25.25,0,0,0,169.32,32.45Zm-.12.32a.41.41,0,0,0,.15-.07l-.14-.05h-.08a.2.2,0,0,0,0,.08S169.17,32.78,169.2,32.77Zm.58,2,0-.07-.05,0,.06.1Zm-.48.92s.11,0,.12-.1,0-.1,0-.15-.11.05-.12.09S169.29,35.61,169.3,35.66Zm.06-3h0Zm0,0,0,0,0,0Zm-1.69,4.06h0Zm0,0,0,0v-.05Zm.17-.29s-.1,0-.11,0a.76.76,0,0,0,0,.21l.13-.18S167.83,36.49,167.83,36.46Zm-.17.3-.56-.23s-.07,0-.08,0l-.57,1.28.75.07C167.24,37.48,167.68,37.22,167.66,36.76Zm-1.22,1.12v0h0l0,0Zm1.75-3.28,0-.09-.11,0s0,.06,0,.08S168.17,34.61,168.19,34.6Zm.33.62v.07h0Zm-1.23-2.13,0,0,0,.05Zm1.24,2.2h0c-.3,0-.3,0-.29.4Zm-1.35-5.42a.18.18,0,0,0,.17.06.36.36,0,0,0,.36-.2,1.09,1.09,0,0,0,.07-.24c0-.06,0-.11,0-.15a1,1,0,0,0-.14-.15.14.14,0,0,0-.15,0l-.09,0-.14.06a1.76,1.76,0,0,1-.2.09.18.18,0,0,0-.09.27A1,1,0,0,0,167.18,29.87ZM167,29.5s0,0,0,.06S167,29.53,167,29.5ZM78,40.84c.18-.06.18-.21.18-.36C78,40.52,78,40.67,78,40.84ZM57.2,19.14a.44.44,0,0,0,.64.1.32.32,0,0,0,.11-.17c.06-.43-.23-.62-.53-.53-.08,0-.17.05-.22.11s-.15.24,0,.43Zm-.82,35v.06l0,0Zm.09-1.83c.13-.18.14-.35-.07-.48C56.23,52,56.28,52.2,56.47,52.33Zm.14.54a2,2,0,0,0,.26,1.33C57,53.7,56.66,53.31,56.61,52.87Zm.47,2.07a1.13,1.13,0,0,0,.25,1.18Zm-.7-.78-.08-.65A.47.47,0,0,0,56.38,54.16ZM52.71,30a5.42,5.42,0,0,0,.4,1.39,1.57,1.57,0,0,1,.15,1.3.83.83,0,0,0,.68,1.06c0-.61,0-1.22,0-1.82a1.12,1.12,0,0,0-.14-.37A4.6,4.6,0,0,1,53.27,30a.5.5,0,0,0-.14-.35,2.68,2.68,0,0,1-.52-1,3.84,3.84,0,0,0-.22-.39l-.14.08a.8.8,0,0,0,0,.27A8.17,8.17,0,0,1,52.71,30ZM52,27.6c.11-.6.1-.6-.11-1a7.69,7.69,0,0,0-.14.76C51.7,27.41,51.84,27.49,52,27.6Zm4.44,26.62,0,0v-.05Zm0,0v.55A.41.41,0,0,0,56.41,54.24ZM57.48,57a.76.76,0,0,0,0-.16s-.05,0-.05.06a.9.9,0,0,0,0,.16S57.48,57,57.48,57Zm2,5.9a.89.89,0,0,0-.52-.47C59.06,62.77,59.25,62.93,59.48,62.91ZM57.72,60a.61.61,0,0,0,.63.1.64.64,0,0,0,.35-.48.86.86,0,0,0-.26-.69.52.52,0,0,0-.77,0A.65.65,0,0,0,57.72,60Zm.91,3.13c0,.1,0,.26.25.15l-.17-.51h-.13A2,2,0,0,0,58.63,63.09Zm1.22,6.12h-.1v.42h.1Zm-2.22-11.3v.44h0l.08-.42ZM51.18,28.65l0-.08-.06,0a.29.29,0,0,0,0,.09Zm6.46,29.71.22.32C57.81,58.47,57.8,58.46,57.64,58.36Zm.62,2h0l0,.07Zm.19.57H58.4l0,.06ZM38.68,43.07s.06.06.09.09l.08-.16-.12-.1A.64.64,0,0,0,38.68,43.07Zm-21,62.41a.18.18,0,0,0-.16.2.21.21,0,0,0,.22.17.23.23,0,0,0,.15-.22A.19.19,0,0,0,17.68,105.48Zm-1.46-5.11c-.18,0-.36.3-.34.51a.44.44,0,0,0,.42.37c.3,0,.52-.23.48-.43A.53.53,0,0,0,16.22,100.37Zm1.05-2s-.05,0,0,0,0,0,.05.08.06-.07,0-.09S17.29,98.41,17.27,98.4ZM17,88.11a.44.44,0,0,0-.48-.34.42.42,0,0,0-.38.51.45.45,0,0,0,.49.36A.54.54,0,0,0,17,88.11Zm-.05,10.24a1.07,1.07,0,0,0-.11.19c0,.07,0,.12.12.11s.13-.06.11-.12A1.36,1.36,0,0,0,16.91,98.35Zm3.26-6.95s0,0,0,0,0,0-.08.06l.08,0A.09.09,0,0,0,20.17,91.4Zm-2.26,13.78c-.1,0-.15.07-.13.13a.12.12,0,0,0,.13.11.11.11,0,0,0,.1-.13A.27.27,0,0,0,17.91,105.18Zm1.88-11.66s-.05,0-.05,0a.9.9,0,0,0,.05.09s.05-.06,0-.07S19.81,93.52,19.79,93.52Zm.41,2.27a.47.47,0,0,0-.48-.39.39.39,0,0,0-.38.45.36.36,0,0,0,.45.34C20,96.16,20.22,96,20.2,95.79ZM39.82,41c0-.09.22-.17,0-.31a.67.67,0,0,0-.2.17c0,.09-.16.2,0,.34C39.71,41.12,39.79,41.07,39.82,41ZM20,104.56l-.14,0a.84.84,0,0,0,0,.52c.07.23.18.31.42.26a.45.45,0,0,0,.11,0,.39.39,0,0,0,.21-.67A.46.46,0,0,0,20,104.56ZM38.73,39.27s0-.1-.07-.19a1.27,1.27,0,0,0-.16.2s0,.1.06.15A.87.87,0,0,0,38.73,39.27Zm.46-.79-.09-.22-.14.12s0,.12.08.14S39.14,38.49,39.19,38.48Zm5.29-12.65-.06,0s0,0,0,.07,0,0,.05,0A.25.25,0,0,0,44.48,25.83ZM36.57,44.17h0v0h0Zm.26-.78a.48.48,0,0,0-.06-.25s-.07,0-.08,0-.17.14-.17.21a5.63,5.63,0,0,0,0,.71C36.57,43.8,36.76,43.61,36.83,43.39Zm.82-2,.72-1.31C37.74,40.44,37.67,40.6,37.65,41.39Zm-3.16,7.24a25.24,25.24,0,0,0,1-2.5,4.57,4.57,0,0,1,1-2,.83.83,0,0,0-.77.5,10.4,10.4,0,0,0-.69,1.61.83.83,0,0,1-.34.56,1.79,1.79,0,0,0-.6,1.48C34.16,48.53,34.23,48.63,34.49,48.63Zm2.69-6.34s-.06,0-.07,0,0,.06,0,.08h.13Zm23,26.18h-.06l0,.07ZM76.45,7.78h0v.09Zm0,.1v0h0ZM75.66.6,75.59.43l0,0C75.55.51,75.56.56,75.66.6Zm1.25,6.7,0,0-.07.05,0,0ZM74.38,2.89c.05,0,.06-.06.05-.11s0-.09-.09-.08a.11.11,0,0,0-.06.09A.09.09,0,0,0,74.38,2.89Zm0,1.33s-.07,0-.06.06a.33.33,0,0,0,.1.11s.06-.09,0-.11A.13.13,0,0,0,74.38,4.22ZM60.53,10.86a.35.35,0,0,0,.39.21.35.35,0,0,0,.23-.42c0-.13-.12-.21-.26-.26s-.22-.07-.34.08l0,0a.17.17,0,0,0,0,.2A.88.88,0,0,0,60.53,10.86ZM75.37,4.55V4.41c-.05,0-.1,0-.11,0S75.29,4.55,75.37,4.55Zm1.84,3a.15.15,0,0,0,.16-.06.23.23,0,0,0,0-.25c-.06,0-.14,0-.26.06S77.12,7.51,77.21,7.53Zm-2-.22s0,0-.06,0,0,0-.07.06.07,0,.08,0S75.21,7.33,75.23,7.31ZM81,8.55a.23.23,0,0,0,.18-.29.23.23,0,0,0-.29-.19.25.25,0,0,0-.17.26A.25.25,0,0,0,81,8.55ZM22.58,90.21l-.12.12s0,0,0,.08l.12-.12ZM80.33,7.09,80.4,7l-.07,0a.24.24,0,0,0-.06.09S80.32,7.1,80.33,7.09Zm5.29,23.57h0v0ZM77.81,8.52l.12.15c.1.09.19.19.35.15a.25.25,0,0,1,.12,0,.4.4,0,0,0,.41-.38,4.3,4.3,0,0,1,0-.46l-.11-.13a.64.64,0,0,0-.3-.19l-.33-.08-.29.15-.1.24a.07.07,0,0,0,0,.06c0,.15,0,.29.05.44ZM79.27,4.9a.06.06,0,0,0,0-.05s0,0-.06,0,0,.15,0,.25A.26.26,0,0,0,79.27,4.9Zm-1.5,2.18h0l0,0Zm1.92-1.25c-.08.1-.07.18,0,.29A.22.22,0,0,0,79.69,5.83Zm0,2.62a.07.07,0,0,0,0,0,.12.12,0,0,0,0-.16s0,0,0,0S79.67,8.4,79.7,8.45ZM74.46,5.84a.58.58,0,0,1,.12.28.17.17,0,0,0,.06.12,1.52,1.52,0,0,0,.78.21l.07,0c.15-.11.23-.09.33.07a.37.37,0,0,0,.15.13.24.24,0,0,0,.32-.08.41.41,0,0,0,.11-.37A.43.43,0,0,0,76.2,6a.4.4,0,0,0-.19,0c-.11,0-.16,0-.14-.15s0-.36.09-.53h-.07c-.14,0-.16,0-.23-.11A.29.29,0,0,0,75.59,5a.32.32,0,0,1-.12-.18.12.12,0,0,0-.13-.08,1.38,1.38,0,0,1-.28,0c-.12.12-.16.13-.39.15a.36.36,0,0,0-.18,0c-.08,0-.19.08-.23.15a1.21,1.21,0,0,0-.07.33s0,0,0,0S74.37,5.71,74.46,5.84Zm-7,12.42c0-.06.06-.08,0-.09s0,0-.06-.05,0,0,0,.06A.21.21,0,0,0,67.42,18.26ZM64.78,61.72l0,0,.1,0,0-.08-.07.1,0,0h0Zm-.41,1.18-.08.05,0,0Zm2.95-46.64a.54.54,0,0,0,.05-.16.09.09,0,0,0-.11-.08.09.09,0,0,0-.07.12S67.26,16.2,67.32,16.26Zm-2.44,45.5-.1,0,.08.12ZM75.09,8,75.15,8l0,0L75.06,8ZM63.35,16.29a.27.27,0,0,0,.24-.32.3.3,0,0,0-.36-.24.27.27,0,0,0-.22.32A.32.32,0,0,0,63.35,16.29ZM60.64,67h-.07l0,.08Zm.08-50.49c-.2.09-.22.12-.2.33a.44.44,0,0,0,.49.42.76.76,0,0,0,.19-.12.38.38,0,0,0,0-.55A.35.35,0,0,0,60.72,16.52Zm.14,47.17c0-.11,0-.11-.14-.13S60.77,63.69,60.86,63.69Zm13-60.16a.25.25,0,0,0,0-.07s0,0,0,0,0,0,0,0Zm-.09,1.65,0,0,0,0s0,0,.05,0Zm.2.22a.27.27,0,0,0,0-.12s0,0-.07,0a.11.11,0,0,0,0,.08S74,5.36,74,5.4Zm.17-1.51-.07-.06,0,.07s0,0,.07,0S74.17,3.89,74.16,3.89ZM69,14.09a.47.47,0,0,0,.15,0l.09,0a.18.18,0,0,0,.07-.08.13.13,0,0,0,0-.06A.23.23,0,0,0,69,14,.08.08,0,0,0,69,14.09ZM69.27,16a.6.6,0,0,0,.29.32.35.35,0,0,0,.28.08l.14-.05a.44.44,0,0,0,.33-.34.63.63,0,0,0,0-.31.33.33,0,0,0-.08-.2,1,1,0,0,0-.29-.14.4.4,0,0,0-.24,0c-.13.06-.32.06-.33.27v0A.34.34,0,0,0,69.27,16Zm-1.62-.86a.37.37,0,0,0,.39-.41.53.53,0,0,1,0-.12c0-.28-.19-.38-.41-.3a.43.43,0,0,0-.3.34.48.48,0,0,0,.17.43A.28.28,0,0,0,67.65,15.15Zm3.74.36a.51.51,0,0,0,.39.21c.3,0,.44-.11.42-.39a1.67,1.67,0,0,0-.08-.3c0-.16-.14-.21-.27-.24a.51.51,0,0,0-.46.1.23.23,0,0,0-.1.28.21.21,0,0,1,0,.23A1.31,1.31,0,0,1,71.39,15.51ZM72.53,5.4h0a.27.27,0,0,0,.2-.32c0-.2-.19-.34-.34-.31s-.08,0-.12,0-.12.06-.13.14V5A.31.31,0,0,0,72.53,5.4Zm9.08,3.33s0-.09,0-.14v.14Zm-40,31.57a.57.57,0,0,0-.13.14c-.12.21-.07.36.2.42l.47-.36.14-.62ZM21.22,90.59h0l0-.23h0ZM47.09,49.54h0a0,0,0,0,1,0,0ZM43.6,54.38v.13h0v0h0ZM42.12,40.5v0h0s0,0,0,0v0ZM66.69,60.93s.08-.07.08-.11a.35.35,0,0,0,0-.13c0,.06,0,.11,0,.16S66.69,60.9,66.69,60.93ZM55.61,75.05a2.62,2.62,0,0,0,.34,1A1,1,0,0,0,55.61,75.05ZM66.72,60.69h0v0h0Zm-8.2,3.44h0v0Zm0,0,0,0-.2-.4h0Zm6.87,28.79s0-.06,0-.1v.07C65.32,93,65.34,93,65.39,92.92ZM75.5,79.84a.11.11,0,0,0,.08,0s.06-.07.09-.1l-.16,0S75.5,79.8,75.5,79.84Zm-1.09,2.84a.49.49,0,0,0,.14.11l-.09.08c.06,0,.09.07.13.07a.09.09,0,0,0,.1-.11h0a.74.74,0,0,0,.21,0A.4.4,0,0,0,74.41,82.68Zm.14,3.2A.54.54,0,0,0,74,86a.57.57,0,0,0-.19.6.52.52,0,0,0,.49.35.55.55,0,0,0,.59-.37A.79.79,0,0,0,74.55,85.88Zm-2.13,1.3a3,3,0,0,1-.48-.78c0-.1-.1-.18-.28-.14a1.47,1.47,0,0,0,.12.28c.27.43.55.85.83,1.27a.2.2,0,0,0,.08.08.11.11,0,0,0,.09-.06s0-.07,0-.1C72.65,87.54,72.54,87.36,72.42,87.18Zm3.59,0s-.05,0-.09.06.07.06.1.06,0,0,0-.07S76,87.15,76,87.15Zm-6.34-32.7-.19.28C69.61,54.7,69.77,54.68,69.67,54.45ZM55.28,88.94a.22.22,0,0,0,0,.08s0,0,0-.08a1,1,0,0,0,0-.17h0A.81.81,0,0,0,55.28,88.94Zm21.21-4.69a1.88,1.88,0,0,0-.24.18l.07.1.28-.16s0,0,.05-.07S76.53,84.24,76.49,84.25ZM76,80.58l.08,0s0,0,0-.06l-.08,0S76,80.56,76,80.58ZM78,41.4h0ZM71,90.83a.35.35,0,0,0-.12-.24,1.43,1.43,0,0,1-.24-.31,6.62,6.62,0,0,1-.24-.62c-.12-.27-.23-.55-.34-.83a1,1,0,0,0-.12-.16l-.06,0c0,.12.07.25.12.36.16.39.33.77.5,1.16a1.66,1.66,0,0,1,.17.47c0,.21.24.22.32.37a.75.75,0,0,0,.07.12l.07.06A.51.51,0,0,0,71,91,.52.52,0,0,1,71,90.83Zm6.48-49c.14,0,.2-.08.27-.18A2.1,2.1,0,0,1,78,41.4C77.63,41.39,77.59,41.41,77.43,41.82Zm0,0h0v0l0,0v0h0ZM76.78,43h0v0h0A.09.09,0,0,1,76.78,43Zm.15-.5h0c0,.15-.09.29-.13.44.3-.06.13-.28.13-.45h0Zm8.89-12.2h.11v-.07l-.1.05h0a.33.33,0,0,1-.19.39C85.91,30.64,85.81,30.42,85.82,30.27Zm-7.6,10.21h0v0l0,0Zm-.25.9c0-.17,0-.34,0-.5C77.78,41,77.88,41.2,78,41.38Zm0,0v0h0Zm.06-.54v0h0Zm0,0,0,0v0Zm-7.33,13v0l0,0Zm6.69-12-.46.6C77.37,42.33,77.39,42.32,77.4,41.87Zm-6.69,12,0,0,.09-.15Zm5.67-10.13v0h0A0,0,0,0,1,76.38,43.72Zm0,0a.27.27,0,0,0,.21-.31,3.46,3.46,0,0,1-.22.31Zm.4-.71c0,.1-.09.2-.14.3C76.73,43.19,76.82,43.11,76.78,43Zm-.19.4,0,0h0a.43.43,0,0,0,0-.07s0,0,0,0Zm-.19.4a.08.08,0,0,0,0-.05v.12S76.41,43.79,76.4,43.77ZM68.9,90.83c-.26,0-.58.38-.6.72a.7.7,0,0,0,.74.73.68.68,0,0,0,.69-.57A.79.79,0,0,0,68.9,90.83ZM47.36,55.11a.86.86,0,0,0,0,.27c.07,0,.17-.07.17-.09A1.14,1.14,0,0,0,47.5,55S47.36,55.08,47.36,55.11Zm4.72,43.23a.71.71,0,0,0,.09.07s0,0,.08,0-.06-.08-.09-.08S52.11,98.32,52.08,98.34Zm-1.69,1.59a.31.31,0,0,0-.36.28.34.34,0,0,0,.3.3.3.3,0,0,0,.35-.27C50.7,100.07,50.59,100,50.39,99.93Zm4.06-9.25c.16,0,.2-.09.26-.17C54.6,90.53,54.49,90.53,54.45,90.68Zm-1.2-6.61v0h0l0,0ZM55,82.26c0-.07-.08-.16-.13-.23a.23.23,0,0,0-.15.07c-.06.13,0,.3.15.29S54.92,82.32,55,82.26Zm1.14,15.87c0,.08-.08.17-.12.24l.22.19a.41.41,0,0,0,.52,0,.37.37,0,0,0,.06-.52A.42.42,0,0,0,56.12,98.13ZM54.68,76.59h0v0Zm0-2.31a.85.85,0,0,0,0-.23s-.08-.08-.13-.13L54.4,74a1.59,1.59,0,0,0,.15.29S54.6,74.28,54.63,74.28Zm2.12,20.94a.35.35,0,0,1,0-.07,8.22,8.22,0,0,0-1,1.4.13.13,0,0,0,.19-.08,1,1,0,0,1,.11-.2A5.78,5.78,0,0,0,56.75,95.22ZM25.12,91.93l0-.06H25.1Zm-.55,5.2c-.17,0-.28.13-.27.27a.29.29,0,0,0,.31.24c.19,0,.28-.12.27-.29A.27.27,0,0,0,24.57,97.13Zm-.68,2.32s0,0-.05,0l.06,0,0,0S23.9,99.45,23.89,99.45Zm-2.34-7a2.29,2.29,0,0,0,.73-1.48C21.54,91.8,21.49,91.91,21.55,92.4ZM25.94,91a.32.32,0,0,0-.27.34.3.3,0,0,0,.33.26.3.3,0,1,0-.06-.6Zm7.24-3.73s-.08.07-.14.14a.68.68,0,0,0,.16.09.12.12,0,0,0,.12-.14C33.31,87.32,33.24,87.26,33.18,87.29ZM35,92.68s-.06,0-.11.09.09.07.12.07.07-.06.07-.08A.11.11,0,0,0,35,92.68Zm-6.5,4.88a.16.16,0,0,0-.08.1s.06.08.11.16c0-.08.1-.13.09-.17A.16.16,0,0,0,28.51,97.56Zm-1-9.47c.14,0,.14,0,.18-.18l-.21.14ZM69,89.47c0,.08,0,.13.06.16a4.86,4.86,0,0,1,.49.78c0,.06.09.13.21.1a2.69,2.69,0,0,0-.33-.54C69.31,89.81,69.24,89.59,69,89.47Zm-.43,7.13c0,.1,0,.13.13.13.07-.16-.08-.27-.1-.39ZM69,86a.25.25,0,0,0-.28-.25.27.27,0,0,0-.22.28.24.24,0,0,0,.26.21C68.86,86.18,69,86.07,69,86ZM21.25,95.34c.14,0,.14,0,.23-.12C21.32,95.21,21.28,95.23,21.25,95.34ZM68.52,96h0l0,.12,0,0Zm1.57-12.79-.16.11,0,0C70.06,83.33,70.06,83.33,70.09,83.21ZM68.38,95.53h0a3.12,3.12,0,0,0-.23-.91C68.11,94.82,68.18,95.07,68.38,95.53Zm1.42-9a.16.16,0,0,0,.24,0C70,86.44,69.88,86.42,69.8,86.52ZM70.7,91s-.06,0-.06.08,0,.06.08.12.08-.1.08-.13A.15.15,0,0,0,70.7,91Zm-1-4.92a.19.19,0,0,0-.19-.21.2.2,0,0,0-.22.19.2.2,0,0,0,.21.19A.19.19,0,0,0,69.65,86.12ZM66.51,92.3l-.06-.6A.81.81,0,0,0,66.51,92.3Zm-4.34,6.15a.47.47,0,0,0,.25.63c.08-.19,0-.35-.08-.52A.16.16,0,0,0,62.17,98.45Zm3.43.3,0,.26h.05l0-.25Zm.34,1.42.06.31h0l0-.3Zm-6.09-6.4,0,0,0,0s0,0,0,0S59.85,93.77,59.85,93.77Zm8-1.89v0l.14,0v0s0,0-.06,0A.14.14,0,0,0,67.83,91.88Zm-8.71,4a.15.15,0,0,0-.11,0c-.2.08-.43.13-.5.39,0,0-.06.09-.08.14a1.31,1.31,0,0,0-.08.21.53.53,0,0,0,.14.41,5,5,0,0,1,.57.72.3.3,0,0,0,.53-.08,3.17,3.17,0,0,0,.17-.38,2.23,2.23,0,0,0,.12-.51.65.65,0,0,0-.17-.55A4.87,4.87,0,0,0,59.12,95.87Zm9.12-6.54a1.38,1.38,0,0,0,0-.2c0-.16-.12-.32-.17-.47s-.13-.38-.2-.56a1.43,1.43,0,0,0-.12-.21l-.07,0a1.66,1.66,0,0,0,0,.22c.12.37.25.74.37,1.1A.14.14,0,0,0,68.24,89.33Zm-.72,1.32c-.14,0-.24.11-.23.21a.23.23,0,0,0,.25.2c.15,0,.23-.09.22-.23A.2.2,0,0,0,67.52,90.65Zm-.58,1.87,0,0,0,0h0S67,92.52,66.94,92.52ZM81.45,74.1a.91.91,0,0,0,.19-.13s0-.09,0-.17a1.15,1.15,0,0,0-.2.15S81.44,74.05,81.45,74.1ZM137,22.81c0,.53.24.87.15,1.28a.73.73,0,0,0,.24.6,1.83,1.83,0,0,1,.68,1.26.36.36,0,0,0,.39.31,23.93,23.93,0,0,0-1.05-2.7C137.36,23.34,137.22,23.14,137,22.81Zm1.46,3.45v0h0l0,0Zm7.65,26.88h0Zm0,0h0Zm-9-25.76h0Zm0,0h0ZM83.74,76.73s0,0,0,0h0v0ZM146.59,55v0Zm.17.78v0l0,0v0Zm-.16-.72c0,.25-.06.52.16.72C146.76,55.55,146.82,55.28,146.6,55.08Zm0,0,0,0s0,0,0-.06Zm-.55-1.6s.09,0,.09-.05a2.13,2.13,0,0,0,0-.25,2.39,2.39,0,0,0-.13.21A.15.15,0,0,0,146,53.45ZM81.45,74.71s0-.15,0-.24l-.67.42A.68.68,0,0,0,81.45,74.71ZM80.65,76s0,0,0,0h0ZM97.19,60.44c-.15.08-.32.17-.26.41l.78-.29c0-.08,0-.17-.08-.3A4.48,4.48,0,0,0,97.19,60.44Zm-14,15.87v0h0Zm0,0-.35.17h.35Zm-4,2.78s0,.14-.06.23a5.64,5.64,0,0,0,1.21-.24,1.23,1.23,0,0,1,1-.08,1.84,1.84,0,0,0,1-.06c.13,0,.34-.1.19-.33-.35,0-.68.27-1.06,0l.58-.71a2,2,0,0,0-.62.14A13.52,13.52,0,0,1,79.17,79.12Zm-.1.24h0v0h0Zm4.1-3,0,0h0ZM97.71,60.58l0,0h0Zm0,0h0v0Zm48.47-9.65a0,0,0,0,0,0,0v0ZM81.44,74.45v0h0Zm.7,0ZM147.22,64s0,0,.05.07l.07-.14-.06-.08A.94.94,0,0,0,147.22,64ZM78.36,79.61l.71-.25C78.57,79.23,78.56,79.24,78.36,79.61Zm69.66-17s-.12.08-.11.1a1.37,1.37,0,0,0,.13.2l.13-.13Zm-.94.77s0,0,0-.06,0,0,0-.07S147.08,63.32,147.08,63.36Zm2.86,1.33,0,0v.08Zm-.59-2.11v0l0-.08v.09Zm-1.28.76c.17.71.18.71.48.89C148.54,63.52,148.54,63.52,148.07,63.34Zm-1.89-12.41,0,0,0,0ZM40.7,40.85l-.05.06a.21.21,0,0,0,0,.07l0,0ZM149.94,64.73v0l0,0Zm-.81-5.19c0-.24,0-.51-.17-.72C149,59.07,148.89,59.35,149.13,59.54Zm0,0s0,0,0,0v.06Zm0,.07v-.07l0,0Zm.61,7s.11,0,.11-.08,0-.11,0-.17-.12.06-.13.1S149.75,66.55,149.77,66.6Zm-3.72-16.34h0v0ZM149.26,64h0v0Zm.42-.87a1.53,1.53,0,0,0-.33-.51,3.72,3.72,0,0,0,.56,2.06C149.84,64.12,149.79,63.6,149.68,63.09Zm-4.17-13.68c.37.21.11.68.52.84a3.06,3.06,0,0,0-.12-.63C145.88,49.53,145.86,49.31,145.51,49.41Zm12.34,4.31a2.46,2.46,0,0,1,.42-.23.73.73,0,0,0,.45-.47,3.8,3.8,0,0,0,.14-.67c0-.22,0-.44,0-.66s.24-.35.12-.76c-.31.63-.88.9-.82,1.56a.25.25,0,0,1-.08.17c-.45.42-.51,1-.78,1.49l.29.7C158.19,54.5,158.18,54.49,157.85,53.72Zm-11.68-2.83c0-.2-.09-.39-.13-.59C146,50.52,145.94,50.73,146.17,50.89Zm3,8.75v.69C149.38,60,149.38,60,149.16,59.64Zm.19,6.2c0,.1.17.16.38.34a6.31,6.31,0,0,0-.12-.71c-.11-.5-.23-1-.35-1.51l-.06.18A2.1,2.1,0,0,0,149.35,65.84Zm17.39-27,0,.06h0v0h0Zm-9.1,16h0v0h0Zm9.11-16.1v.13a.41.41,0,0,0,0-.09A.14.14,0,0,1,166.75,38.75Zm-1.54,1.74,0,.07,0-.08s0-.1,0-.15h0ZM137.3,27.23s-.05-.07-.08-.11,0,.05,0,.07v.17S137.29,27.28,137.3,27.23Zm20.33,54.83v0h0v0Zm-.06-.2s-.06-.06-.1-.09l0,.09V82h.17A.9.9,0,0,0,157.57,81.86Zm0,.17h0v0Zm-.2.57v-.52A.37.37,0,0,0,157.41,82.6Zm5.25-14.5a2.12,2.12,0,0,0-.58.62c-.18.31-.33.63-.05,1,.11-.26.22-.53.32-.8S162.56,68.36,162.66,68.1Zm-5.54,15a1.23,1.23,0,0,1,0,.19h0Zm.3-.48v0h0a.82.82,0,0,1-.28.65.61.61,0,0,1-.22.64l.46.33a4,4,0,0,0,.06.5.64.64,0,0,0,.52.51.52.52,0,0,0,.57-.31,9,9,0,0,0,.46-.87c.12-.23.2-.49.34-.71a11.59,11.59,0,0,0,1.23-3.47.48.48,0,0,0,0-.36c-.32-.27-.09-.45.08-.65s.22-.2.2-.27A.68.68,0,0,1,161,78a1.17,1.17,0,0,0,.26-.8c.06-.49.18-1,.28-1.45.48-.33.35-1,.63-1.38,0-.08.15-.13.2-.21a.58.58,0,0,0,.11-.26c0-.43.1-.88-.15-1.28a3.18,3.18,0,0,0-.84,1.71c-.23,1-.5,1.88-.81,2.8q-.87,2.55-1.77,5.08c-.17.49-.36,1-.56,1.46a.34.34,0,0,1-.47.2c.07-.21.15-.42.23-.63.19-.48.37-1,.56-1.45h0a.54.54,0,0,0-.41.35l-.29.55c-.32-.18-.26-.37-.13-.56l-.24-.07A.68.68,0,0,1,157.42,82.63Zm.5,1.25,0,.16,0-.16Zm-.22-.63,0,.07,0,.07a.71.71,0,0,1-.07-.09A.23.23,0,0,0,157.7,83.25Zm.38-2.36h0c0,.23,0,.46-.05.68a.71.71,0,0,0,.05-.68h0Zm-76-3h0l0,0ZM157,83.77l0,.15h0A1.42,1.42,0,0,0,157,83.77Zm.9-1.68.12-.42A.38.38,0,0,0,157.88,82.09Zm0,0h0a.09.09,0,0,0,0,0v0Zm3.24-9.86v0h0l0,0h0Zm-.26,1h0c.12-.09.31-.15.36-.27a5.29,5.29,0,0,0,.18-.82l-.3.12A1.07,1.07,0,0,1,160.86,73.24ZM157.78,81a.73.73,0,0,0,.13-.85c-.07.24-.16.47-.23.71C157.67,80.9,157.74,81,157.78,81Zm5.53-10c0-.08-.11-.2-.17-.2s-.3,0-.33.1a3.21,3.21,0,0,0-.44,1.62l.39-.22A1.06,1.06,0,0,0,163.31,71.06Zm-5.06,7.85h0Zm2.66-5.61a.05.05,0,0,0,0,0v.1S160.92,73.31,160.91,73.3Zm0,0v0h0Zm-2.64,5.65Zm4.1-6.32,0,0v0Zm-4.31,9v-.06l0,0Zm4.31-9,0,0h0Zm-4.31,9,0,0v.06Zm.63-.11,0,.27h0A1.56,1.56,0,0,1,158.67,81.52Zm-.58-.64c.32-.08.23-.35.24-.57a0,0,0,0,0,0,0C158.24,80.51,158.17,80.7,158.09,80.88Zm-22-30.56h0Zm.08.53.11-.05-.19-.48c-.05.07-.15.14-.13.18A2,2,0,0,0,136.19,50.85ZM112.77,61.3l.58-.16,0-.12-.54.28h0Zm26.09-3.13c-.08.22-.37.16-.31.5.07.11.19.3.3.49h0c0,.39.07.78.15,1.15s.07.6.45.74c.28-.54-.26-.95-.29-1.59l.51.67a9.33,9.33,0,0,0-.72-2.65l-.23.15,0,0v0h0C138.74,57.82,138.81,58,138.86,58.17Zm-.16-.55Zm-.34,0c0,.15.07.27.21.25s.15-.16.11-.29-.34-.11-.3-.35h0C138.37,57.39,138.37,57.52,138.36,57.65Zm-26.75,4,0,0h0Zm-2.47,1.85s0,0-.07.06a.67.67,0,0,0,.18.11.32.32,0,0,0,.14,0l-.11-.11A.39.39,0,0,0,109.14,63.48ZM82.05,77.94v0s0,0,0,0Zm27.38-14.27h0l-.08.42.7-.19c-.08.09-.16.19-.25.28s-.25.22-.46-.06c-.11,0-.28,0-.33.12a7.79,7.79,0,0,0-.41.82c.18,0,.37.1.45,0,.46-.39.9-.81,1.35-1.23,0,0,0-.11-.06-.18l-.25.13a2.65,2.65,0,0,1,.78-1,9,9,0,0,0,.68-.7.44.44,0,0,0,0-.5,4.32,4.32,0,0,1-.47.57A14,14,0,0,1,109.43,63.67Zm48.48,16.49h0v0h0ZM111.62,61.63l0,0a0,0,0,0,0,0,0Zm29.78,1.11c0-.2,0-.39,0-.59h-.16C141.32,62.35,141.36,62.54,141.4,62.74Zm-32,1.35h0v0h0Zm46,21.29v-.07h0v0h0Zm-2,5.08h0l0,0Zm-12-27.65h0v0Zm16.53,17.32a1,1,0,0,0,.24,0c.28-.11.2.06.16.2h0c.29-.1.28-.4.36-.54-.17-.31-.3-.58-.44-.85C158.36,79.38,158.08,79.74,157.92,80.13Zm-2.54,5.25c-.16.73-.33,1.45-.49,2.18A4.28,4.28,0,0,0,155.38,85.38Zm-2.24,5.44.24-.36C153.1,90.44,153.1,90.45,153.14,90.82ZM141.61,63.09a.33.33,0,0,0-.07-.17.45.45,0,0,0-.13-.1c.07.36-.08.78.34,1.21C141.69,63.61,141.65,63.35,141.61,63.09Zm.82,6.28a2.16,2.16,0,0,0-.25-.71c-.16.88.4,1.64.4,2.66l-.57-.76a3.34,3.34,0,0,0,.44,1.62h0a2.12,2.12,0,0,0,.5,1.4,1.94,1.94,0,0,0,.18-1.58,2.66,2.66,0,0,1-.07-.76l0,0A5.55,5.55,0,0,1,142.43,69.37ZM143,72.5s0-.08,0-.11.06-.1.09-.16l-.51,0v-.6l.51.65,0,.16A.33.33,0,0,0,143,72.5Zm10.46,18s0,0,0,0v0Zm0-.94v-.07h0v0h0Zm0,.9c0-.31,0-.6,0-.9A1.27,1.27,0,0,0,153.39,90.42Zm4-8.4h0v.06l0,0ZM176.78,26.4a.27.27,0,0,0,.17-.21l-.09.09S176.79,26.35,176.78,26.4Zm.65,1.57,0,0v0l0,0Zm-2.28-2.48Zm3.33,1.61a.11.11,0,0,1,0-.05l-.1,0a.32.32,0,0,0-.14,0,2.13,2.13,0,0,1-.35.14c-.07,0-.11,0-.12-.07a.27.27,0,0,0-.08-.16c0-.07,0-.09,0-.16a.14.14,0,0,0,.07-.08s-.06,0-.06,0a.54.54,0,0,1-.12.09l-.24.14-.17.09h0s-.08,0-.09,0,0-.05.07-.06,0,0,0-.07L177,27a.09.09,0,0,1-.11,0l-.15-.21a.09.09,0,0,1,0,0,.09.09,0,0,0,0-.05c0-.08,0-.08.05-.11v-.07c-.13,0-.13,0-.18-.1s0,0,0,0-.08-.08-.1-.13a.22.22,0,0,1,0-.16,1.11,1.11,0,0,0,.09-.19,1.66,1.66,0,0,1,.18-.35.41.41,0,0,0,.05-.09.3.3,0,0,1,.05-.16s.08-.1.11-.16a.38.38,0,0,0,.05-.15s0-.09,0-.13a.36.36,0,0,1,0,.11.43.43,0,0,1,0,.12l-.1.15s-.06.07,0,.11,0,0,0,0l-.12.22a.09.09,0,0,1-.08.05.07.07,0,0,0-.05,0l-.06.09h0s0,0,0,.05l0,0h-.06c-.07,0-.1,0-.15,0s-.09-.11-.14-.17a.69.69,0,0,1-.07-.15s0,0,0-.05,0-.11,0-.17,0-.08-.08-.08a.11.11,0,0,1-.1-.06l-.06-.09s0-.08-.09-.1a.12.12,0,0,1-.06-.12,2.06,2.06,0,0,0,0-.26,1.6,1.6,0,0,1,0-.49s0-.05,0-.08h0a.19.19,0,0,0,0,.08s0,.07,0,.11,0,.35.07.52,0,.25,0,.37,0,.05,0,.07v0a.86.86,0,0,1,0,.32h-.07c-.06.05,0,.12,0,.2l-.09-.1a.25.25,0,0,0,0,.14c0,.05,0,.08-.07.08s-.07-.14-.11-.2a.93.93,0,0,0-.05-.1l.06.21s0,0,0,.05l-.06.2s0,.05,0,.07a.26.26,0,0,1,0,.21.47.47,0,0,0-.15.06c-.06,0-.06,0-.05.1a.22.22,0,0,1,0,.14l-.15.18s-.05,0-.06-.06a1,1,0,0,1-.11-.45s0-.08,0-.13a.44.44,0,0,0,0-.1c0-.1,0-.21,0-.31a.13.13,0,0,1,0-.06.39.39,0,0,0,0-.24s0,0,0,0a1.1,1.1,0,0,1,0,.57c0,.05,0,.1-.09.12.09,0,.11.07.12.14s0,.13,0,.19a1.12,1.12,0,0,1,.05.36.46.46,0,0,1-.2.38s-.06.05-.06.08a2.85,2.85,0,0,0,0,.29,1.7,1.7,0,0,1,0,.22l-.08,0-.1-.06a.17.17,0,0,1-.11-.11l0-.05,0,.07.08.07.25.15,0,0a.66.66,0,0,1,.09.39,1.21,1.21,0,0,0,0,.19.41.41,0,0,0,.15.29,1.09,1.09,0,0,0,.17.13l.14.12c.08,0,.14.13.23.14a1.24,1.24,0,0,1,.29.1.3.3,0,0,0,.21,0,.17.17,0,0,1,.1,0,2.24,2.24,0,0,0,.52,0c0-.08,0-.11.1-.11l.14,0a1.81,1.81,0,0,0,.23,0c.07,0,.08,0,.07-.09s0-.11.09-.14h0l.12-.14a.27.27,0,0,1,0-.09.59.59,0,0,0,.05-.23c0-.1,0-.12.11-.13a.22.22,0,0,0,.08,0h.07v0a.42.42,0,0,1-.27,0,0,0,0,0,1,0,0,.16.16,0,0,1,.15-.06,1.28,1.28,0,0,1,.27.05l.08,0c0-.05,0-.08,0-.09l-.08,0a.12.12,0,0,1,0-.17.78.78,0,0,1,.25-.23.1.1,0,0,1,.09,0,.18.18,0,0,0,.1,0,.42.42,0,0,1,.15,0H178c-.05,0-.12,0-.16-.06l0,0,.41-.19c.06,0,.12,0,.14-.1S178.53,27.17,178.48,27.1Zm-2.07-1.24s.05,0,.06,0a.05.05,0,0,1,0,.06ZM176.5,29h0Zm1.24-1.89,0,.08c-.06,0-.1.06-.17,0S177.66,27.06,177.74,27.08Zm.52.29a1.07,1.07,0,0,1-.19.07,1.5,1.5,0,0,1-.43.1s-.16-.08-.16-.12a.11.11,0,0,1,0-.08l.09-.06a.76.76,0,0,1,.25-.06.51.51,0,0,0,.3-.06l.11,0h0a.42.42,0,0,1,0,.15S178.3,27.36,178.26,27.37Zm1.12-6.14s.05,0,0-.05h0A0,0,0,0,0,179.38,21.23Zm-4.25,4.16,0,.1A.07.07,0,0,0,175.13,25.39Zm4.16-4h0v0h0Zm-5.66,6a.49.49,0,0,0,.23.08H174A.32.32,0,0,0,173.63,27.41Zm4.88-.49s0,0,0,.06l.05-.05Zm0-3.14a.15.15,0,0,0-.06,0,.37.37,0,0,0-.06.1l0,.11c.1-.14.25-.23.33-.39h0A.57.57,0,0,1,178.54,23.78Zm-.11,3.78v0l.16-.07h0Zm.24-.07v0h0v0Zm-4.69,0Zm-1.14,9.37a.34.34,0,0,0,.08.09l0-.08-.06-.07S172.83,36.86,172.84,36.87ZM82.75,77.06c.33-.09.65-.23,1-.35-.13-.27-.38-.16-.59-.18h-.4v0c-.18.36-.6.39-1,.64l.41.31A1.09,1.09,0,0,1,82.75,77.06Zm95.51-49.45-.15,0C178.18,27.68,178.21,27.67,178.26,27.61Zm-3.74,11s-.12.06-.13.1a.14.14,0,0,0,.09.11c.06,0,.12,0,.12-.08A.1.1,0,0,0,174.52,38.63ZM172.92,22a.37.37,0,0,0,.23,0,1.06,1.06,0,0,0,.21-.16s0,0,0,0,0-.12,0-.17,0-.05,0-.07a.23.23,0,0,0-.13-.18.29.29,0,0,0-.31,0,.1.1,0,0,1-.12,0,.22.22,0,0,1,0,.09.33.33,0,0,0,0,.24A.34.34,0,0,0,172.92,22Zm-.08,10.32-.11.14s.09,0,.1,0a.94.94,0,0,0,.06-.15Zm1.43,1.83a.2.2,0,0,1,0-.17l-.08,0a.17.17,0,0,1-.11-.11s0,0,0,0l-.25,0a.41.41,0,0,0-.19,0,.55.55,0,0,0-.19.12l0,.06a.58.58,0,0,0,0,.14.14.14,0,0,0,0,.06,1.48,1.48,0,0,0,0,.21.08.08,0,0,0,0,0,.34.34,0,0,0,.16.21,1.53,1.53,0,0,1,.15.13c.08-.09.16,0,.24,0l.1,0h0c0-.07.12-.09.16-.16a.13.13,0,0,0,0-.08.11.11,0,0,1,0-.08s0,0,.07,0,0-.07,0-.08S174.28,34.21,174.27,34.17ZM178.21,39l0,0,0,0,0,0S178.21,38.94,178.21,39Zm-.73.81h.08v0S177.51,39.71,177.48,39.76Zm-2-7.48.08,0a.31.31,0,0,1,0-.08.09.09,0,0,1,.09-.13.11.11,0,0,1,.11,0,.19.19,0,0,0,.12,0l-.07-.08a.16.16,0,0,1-.07-.07.35.35,0,0,0-.08-.13l-.11-.11s-.06-.05-.05-.1l.07,0a.56.56,0,0,0,0-.12c0-.07,0-.09,0-.14l-.11-.09a3.55,3.55,0,0,1-.23-.31.14.14,0,0,1-.05-.09.18.18,0,0,0-.17-.18.28.28,0,0,1-.19-.14.1.1,0,0,0-.08-.05l-.26,0h-.25a.13.13,0,0,1-.15-.09.42.42,0,0,1,0-.1l-.12-.32a.56.56,0,0,1,0-.12l0-.06s-.06,0-.1,0a.06.06,0,0,0,0,.09s0,0,0,0a1.94,1.94,0,0,1,.13.3.41.41,0,0,1-.12.49.62.62,0,0,0-.18.39,1.34,1.34,0,0,1,0,.35.18.18,0,0,0,0,.2.11.11,0,0,1,0,.06.46.46,0,0,0,.13.27.67.67,0,0,1,.06.12c0,.08.06.16.1.25a.67.67,0,0,0,.09.14.21.21,0,0,0,.11.08s.05-.06.07-.06.12,0,.18-.07a.21.21,0,0,1,.25.08.18.18,0,0,0,.05.07.07.07,0,0,0,0,0,.36.36,0,0,0,0-.09.13.13,0,0,1,.14-.08l.09,0,.25.12c0-.06,0-.13,0-.16a.85.85,0,0,1,.17-.06l0-.07.07.09s.06.08.1.09a.38.38,0,0,1,.15.13c0,.08.11.1.19.13-.08-.08-.17-.14-.24-.22A1.61,1.61,0,0,1,175.45,32.28Zm2,7.36h-.1A.09.09,0,0,0,177.4,39.64Zm-1.28-6.7,0,0h0l0,0Zm9.41-14.24h0l0,0,0,0ZM185,34.19a1.54,1.54,0,0,1-.33-.43l-.06-.07s0,0,0,.05a.19.19,0,0,0,0,.07l.07.09a2.39,2.39,0,0,0,.38.46.07.07,0,0,0,.1,0s0,0,0-.09S185,34.23,185,34.19Zm.8-16.1-.19.18a1.54,1.54,0,0,1-.19.17l-.21.21a2.39,2.39,0,0,1-.22.23c0,.05-.11.08-.14.16s0,0,0,0l-.1.09a.07.07,0,0,0,.09,0c.12-.13.26-.25.37-.39a1,1,0,0,1,.15-.14l.34-.35.18-.15s0,0,0,0l0,0A.1.1,0,0,0,185.79,18.09Zm-.18.54a.07.07,0,0,0,0-.08l-.06.07Zm-12.86-1.45a.3.3,0,0,1,0,.1.4.4,0,0,0,.09.2s0,0,0,0,0,.1.05.15l.05.11v0l-.09-.33-.13-.49a.2.2,0,0,0-.08-.12s0,.05,0,.07a.26.26,0,0,1,0,.12A.25.25,0,0,0,172.75,17.18Zm10.78,19.19a.13.13,0,0,0-.11-.17h-.16a.36.36,0,0,0-.2.06.26.26,0,0,0-.09.14.26.26,0,0,0,0,.21l0,0s0,.08,0,.09a.38.38,0,0,0,.1,0h.1a.84.84,0,0,0,.27-.13.1.1,0,0,0,.05-.14A.52.52,0,0,1,183.53,36.37Zm.41,1.62h0s0,0,0,0Zm-2.26-16.81c.08,0,.12-.1.17-.17A.55.55,0,0,0,181.68,21.18Zm6.66-2.5-.33.25-.11.1,0,0a.1.1,0,0,0,.05,0c.14-.12.29-.22.43-.33l.15-.12a.15.15,0,0,0-.12,0Zm-1.52.94a.38.38,0,0,0,.16-.12A.28.28,0,0,0,186.82,19.62Zm1.74-1.86a1.3,1.3,0,0,1-.18.15,1.07,1.07,0,0,0-.16.14l0,0c.07,0,.08-.07.14-.06-.16.15-.31.29-.46.46h0a5.92,5.92,0,0,0,.59-.52,1.14,1.14,0,0,0,.11-.11.34.34,0,0,1,.14-.15l.12-.09,0-.1C188.78,17.59,188.66,17.67,188.56,17.76ZM187,18.83h0l0,0h0Zm.81-.29v0l.05,0v0Zm-6.11,2.65Zm-2,2s.05-.07.1-.07a.05.05,0,0,0,0,0l.08-.08.22-.18,0-.06h0a.67.67,0,0,1-.19.14l0,0c0,.06-.08.06-.13,0l-.21.32A.18.18,0,0,0,179.64,23.23Zm1-.95h0l0,0h0Zm-.16.15,0,0,0,0h0Zm-.17,13.15,0,0a1.53,1.53,0,0,1-.37-.16s-.09,0-.1,0a.22.22,0,0,1-.1.13l-.06.06a.17.17,0,0,0,0,.14.26.26,0,0,0,.13.2l.14.07a.16.16,0,0,1,.08.06s.06,0,.1,0a.1.1,0,0,0,0,0h.07a.13.13,0,0,0,.12,0l.08-.09A.2.2,0,0,0,180.3,35.58Zm-.57-7.52a.22.22,0,0,0,.24-.2c0-.09-.11-.19-.19-.18a.49.49,0,0,0-.17.06s0,.06,0,.1A.18.18,0,0,0,179.73,28.06Zm.78-6.16h0l0,0h0Zm1.09-.6Zm0,0s.08,0,.07-.1A.23.23,0,0,0,181.6,21.29Zm-.22.26,0,0,.15-.17,0-.05A.65.65,0,0,0,181.38,21.55Zm-.13.1v0l.07-.07h0Zm.17,2h0ZM173,30.46a1.26,1.26,0,0,0,0,.27,2.15,2.15,0,0,0,.18-.24s-.06-.08-.09-.13S173,30.43,173,30.46Zm-.79-14.53,0,.07s0-.06,0-.08Zm-.83,17.54a11.61,11.61,0,0,0-.68,1.18c-.36.73-.68,1.47-1,2.21a2.16,2.16,0,0,0,.38-.42c.38-.64.76-1.29,1.1-1.95a2.71,2.71,0,0,0,.48-1.24A2.28,2.28,0,0,0,171.37,33.47Zm-11.9,46.07,0-.12C159.32,79.51,159.39,79.52,159.47,79.54Zm.62-3.74h0a1.3,1.3,0,0,0,0,.13l0-.13.07,0Zm1.61-4.52h0s0,0,0,0v0l.11-.12Zm0,.09s0,0,0,0v.09A.43.43,0,0,1,161.72,71.37Zm-1,2.94-.06.15h0A.88.88,0,0,1,160.73,74.31Zm-1.35,5.34.09-.08,0,0h0l-.1,0Zm-2.27,1.48L157,81s-.11.07-.12.11,0,.09.07.14Zm2.37-3.1-.38.33h0l.4-.33Zm-.35.42,0-.1h0Zm.36-.56V78h0A.59.59,0,0,1,159.49,77.89Zm-14.91.92A4.72,4.72,0,0,1,144,76.7a2.45,2.45,0,0,1-.39-1.56l-1.09-.4c-.59-.86-.48-2-1-3.06a1.48,1.48,0,0,0-.07.37,10.59,10.59,0,0,0,.84,3.08c0,.07.16.1.24.15h0v.08h0v0c.17.26.33.52.49.78.48.08.49.49.54.82.12.67.17,1.35.23,2,0,.06,0,.12-.06.17l-.34,0c.3.62.29,1.32.64,1.93a2.37,2.37,0,0,1,.45,1.2,3.29,3.29,0,0,0,.35,1s.1,0,.16.08a.3.3,0,0,0,.16-.4,11.56,11.56,0,0,0-.83-2.49.93.93,0,0,1-.07-1.08c.6,1,.74,2.19,1.34,3.15a.57.57,0,0,0,0-.34c-.12-.37-.23-.75-.37-1.11a2.29,2.29,0,0,1-.08-1.61A1.11,1.11,0,0,1,144.58,78.81Zm-3.49-16.68h.15C141.19,62,141.14,62.06,141.09,62.13Zm.36,0h0v0h0Zm-.21,0v0h0v0Zm-.56-.74a2.44,2.44,0,0,0,.07,1.23c0,.07.12.1.18.15s.1-.06.1-.08c0-.19,0-.38,0-.56l0,0h0l0,0h0ZM82.17,77.49l0,0h0v0Zm58.5-16.15,0,0,0,0v.05h0l0,0v-.07ZM168.6,40.19a7.16,7.16,0,0,0-.92,2,.73.73,0,0,0,.65-.93c0-.21.09-.33.25-.47a1.31,1.31,0,0,0,.55-1.15,1.88,1.88,0,0,1,.16-.64h0a2.92,2.92,0,0,1-.28.21c-.11.08-.23.15-.35.22A.77.77,0,0,1,168.6,40.19Zm.24-1.92c-.21.45-.82.7-.66,1.34,0,.09-.1.24-.19.33a2.56,2.56,0,0,0-.56,1c-.3.76-.64,1.51-1,2.26a.55.55,0,0,1-.59.39c-.07-.61.39-1.09.43-1.67a.09.09,0,0,1,.06-.07c.3-.12.3-.4.38-.65a5,5,0,0,1,.3-.72c.18-.38.41-.74.6-1.12.31-.64.59-1.29.89-1.94h0a1.87,1.87,0,0,0,.08-.34s-.06-.06-.1-.09,0,.06,0,.08l.06.36h0c-.2,0-.39.06-.47.28s-.21.62-.35.91c-.55,1.1-1.13,2.19-1.68,3.3a25.13,25.13,0,0,0-1.6,3.45,2.7,2.7,0,0,1-.31.61c-.14.21-.33.4-.46.63s-.22.45-.37.76a1.87,1.87,0,0,1,.23-1.18c.61-1.37,1.21-2.75,1.82-4.13.38-.87.77-1.73,1.15-2.59a5.44,5.44,0,0,0,.19-.52c-.36.06-.38.45-.57.66s-.17.32-.38.33c-.12-.35.27-.56.13-.89l-.7,1.26h0c.12.15.31.28.33.44a.48.48,0,0,1-.39.5c-.51.12-.71.55-.91.95A3.51,3.51,0,0,0,164,43h0c-.21.39-.44.77-.62,1.18a2.5,2.5,0,0,0-.31,1.62c0,.05-.07.09-.14.17l-.3-.23c-.17.25-.46.49-.51.76a5.72,5.72,0,0,1-1.27,2.47c-.05.07,0,.22,0,.35h0a4.05,4.05,0,0,0-.46.73,5.12,5.12,0,0,0-.23,1c-.09.63-.54,1.1-.7,1.7-.41.25-.35.66-.3,1l-.49.35c0,.21,0,.44-.07.58a6.7,6.7,0,0,0-.49,1.26,6.62,6.62,0,0,0-.61,1.22.36.36,0,0,1-.46.28c.13-.36.23-.66.35-1a3.06,3.06,0,0,0,.22-1.61.83.83,0,0,0-.21.12c-.21.24-.2-.22-.4-.07L156,57.49c0,.09-.12.21-.09.27.26.53,0,.84-.4,1.17-.11.09-.12.29-.2.43-.29.54-.35,1.2-.87,1.62-.08.06-.09.22-.12.34a1.85,1.85,0,0,1-.08.48,12.92,12.92,0,0,0-.8,2.26,7.65,7.65,0,0,1-1.1,2.35,2.92,2.92,0,0,0-.65,1.36s-.08.09-.12.13l-.72.13a4.53,4.53,0,0,1,0,.54s-.09.1-.14.1-.14-.07-.14-.1c0-.25,0-.58.09-.75a2,2,0,0,0,.27-1.36,1.06,1.06,0,0,1-.56-.91c-.05-.3-.06-.64-.37-.82a1.49,1.49,0,0,0,.1.72c.17.56.29,1.13.41,1.7,0,.19-.12.27-.5.24l.27,1.11c-.15,0-.32.06-.44,0-.48-.22-.63-.71-.81-1.2l.2-.25c0-.06,0-.12-.07-.17s-.27-.3-.23-.4c.16-.49-.13-.88-.22-1.31a.58.58,0,0,0-.7-.5c.08.53.08.53-.3,1.33a2.28,2.28,0,0,1-.23-.43c-.36-1.18-.73-2.36-1.07-3.55A7.38,7.38,0,0,1,146.2,61h0c.18-.13.14-.27,0-.4h0c.18-.18.31-.19.34,0,.09.41.16.83.26,1.23a4,4,0,0,0,.3.56c.22-.65-.29-1.08-.18-1.64.42.17.27.66.54.86a.87.87,0,0,0,.13-.78c-.08-.32-.32-.66-.12-1.08A3.85,3.85,0,0,1,148,61.1a11.51,11.51,0,0,0,.93,2.66c.05.08.19.12.29.18-.37-1.27-.75-2.54-1.11-3.81l-.69-2.42a.49.49,0,0,1,.42.34c.15.49.3,1,.43,1.48a16.28,16.28,0,0,0,1,2.92,5.93,5.93,0,0,0-.22-1.51,1.58,1.58,0,0,1,0-.57l0,0v-.06l0,0c-.37-.47-.31-1.07-.57-1.67l.37.08a2.49,2.49,0,0,0-.43-1.19h0a8.27,8.27,0,0,0-.1-.87,15.69,15.69,0,0,1-.75-3s-.1-.06-.2-.11l-.19.82a5.73,5.73,0,0,0-.67-1.73,1.2,1.2,0,0,1-.22-1,.7.7,0,0,0-.19-.7.77.77,0,0,1-.06.24.93.93,0,0,0-.06,1.15,7,7,0,0,1,.38.78.7.7,0,0,1,0,.74c-.37.44-.18.79.12,1.14l.08-.54a2.63,2.63,0,0,1,.48,1.6l-.35-.2.05.69c-.28.1-.42-.06-.49-.3-.21-.75-.4-1.51-.63-2.25-.45-1.44-.91-2.87-1.36-4.31a7.75,7.75,0,0,1-.14-.78c.16.18.25.24.28.32a6.62,6.62,0,0,1,.47,1.38,9.56,9.56,0,0,0,.88,2.47l.29.05a47.29,47.29,0,0,1-1.69-5.3.28.28,0,0,1,0-.2c.07-.12.16-.23.26-.38.5.42.35,1.12.85,1.53a14.44,14.44,0,0,0-.6-2.69c-.45-1.46-1-2.88-1.4-4.39-.15-.63-.18-.62.19-1.53a.45.45,0,0,0,0-.28c-.07-.25-.16-.49-.25-.73,0,0-.1,0-.16,0-.1.22.27.49-.11.7a2.38,2.38,0,0,1-.25-1.67c.1-.46.05-.49-.52-.57q-.18-.63-.39-1.32l.31-.22a4.69,4.69,0,0,0-.42-1.88,20.2,20.2,0,0,0-1.86-4.42,3.41,3.41,0,0,1-.32-.82,9.21,9.21,0,0,0-1.29-2.61l-.3.61c.21.7.43,1.44.69,2.35a3.8,3.8,0,0,1-.46-.46c-.29-.43-.58-.87-.85-1.31a.29.29,0,0,0-.39-.12,4,4,0,0,1,.56,2.2,3,3,0,0,1-.33-.57c-.14-.26-.24-.62-.46-.73a1.37,1.37,0,0,1-.6-.85c-.43-1-.86-2-1.26-3a8.61,8.61,0,0,1-.53-1.68,9.7,9.7,0,0,0-.4-1.52c-.15-.39-.26-.79-.4-1.19,0,0-.1,0-.19-.06s0,.19,0,.27a3.53,3.53,0,0,1,0,1.55,1,1,0,0,0,.11.85c0,.05,0,.18-.07.27l-.76-.14c-.23-.32-.09-.62,0-.92s0-.43-.25-.54c-.1.09-.27.17-.28.26a4.43,4.43,0,0,0-.08,1.53,1.9,1.9,0,0,1-.09,1.41s-.09.05-.13.08-.18-.31-.4-.21l-.14.78c-.51-.62-.26-1.42-.79-2.05-.07.3-.13.48-.16.66s0,.35,0,.68l-.44-.7-.21.33c-.14,0-.17-.32-.38-.16.19.63.19.63,0,1.09-.48-.08-.89-.67-1.48-.14l.18.83h0a.76.76,0,0,0-.2.6,2.53,2.53,0,0,1-.05,1.16l-1.06.05a4.62,4.62,0,0,1,.7,1.71,1.46,1.46,0,0,1-.24,1.4,2.48,2.48,0,0,0-.52,1.13.22.22,0,0,1-.3.2,5.9,5.9,0,0,0-.23-.92c-.33-.75-.67-1.5-1-2.22s-.93-1.66-1.43-2.47a19.44,19.44,0,0,0-1.23-1.78c-.36-.46-.8-.86-1.2-1.29a2.92,2.92,0,0,1-.64-1,2.51,2.51,0,0,0-.46-.73c-.28-.32-.61-.6-.91-.91a37.68,37.68,0,0,0-3.67-3.11,24,24,0,0,0-2.84-1.75c-.54-.32-1.11-.58-1.62-.93a15.66,15.66,0,0,0-3-1.58,17.36,17.36,0,0,1-1.71-.75,17.63,17.63,0,0,0-3.12-1.2c-2.07-.61-4.15-1.19-6.23-1.78a24.8,24.8,0,0,0-4.75-.79c-1.24-.1-2.49-.11-3.74-.15a36.66,36.66,0,0,0-6.28.3,19.08,19.08,0,0,0-3.14.7h0s-.06,0-.08,0a.61.61,0,0,0-.25.07.33.33,0,0,1-.25.06s0,.07,0,.1a15.66,15.66,0,0,0-2.18,1l-.62.38v0a.13.13,0,0,0-.14-.12.2.2,0,0,0-.14.18.13.13,0,0,0,.08.1c-.65.45-1.24.95-1.84,1.46a.56.56,0,0,0-.14.25,1.06,1.06,0,0,0,.6,1.22c.51.21,1,.4,1.57.57a9.81,9.81,0,0,0,1.42.35,3.19,3.19,0,0,1,1.3.41,1.38,1.38,0,0,0,.73.24c1.5,0,3,.37,4.49,0a1.7,1.7,0,0,1,.39,0c1.47,0,2.94-.09,4.41-.08,1.24,0,2.48.11,3.71.12a24.16,24.16,0,0,1,3.6.49,1.09,1.09,0,0,1,.56.16c.22.22.45.18.71.18a4.68,4.68,0,0,1,1.23.17,17.27,17.27,0,0,0,1.73.39,17.13,17.13,0,0,1,4.35,1.51,21.07,21.07,0,0,1,3.26,2,16.31,16.31,0,0,1,3.84,3.76,15,15,0,0,1,2.24,5.52A8.26,8.26,0,0,1,114,33c-.15,1.17-.32,2.34-.53,3.5a10.1,10.1,0,0,1-1.08,3c-.58,1.06-1.19,2.12-1.74,3.19-.25.49-.72.87-.78,1.47,0,.07-.11.13-.17.19a5.58,5.58,0,0,0-.53.56c-.55.73-1.08,1.48-1.61,2.23.14.29,0,.68.3.92-.22.4-.41.82-.66,1.2A4.78,4.78,0,0,1,106,50.78a.81.81,0,0,0-.29.26,2.71,2.71,0,0,1-.84.94,1.15,1.15,0,0,0-.35.45,1.64,1.64,0,0,1-.46.63c-.37.41-.73.84-1.08,1.27a.6.6,0,0,0-.18.33,1.14,1.14,0,0,1-.45.84,9.67,9.67,0,0,1-.93.88A6.15,6.15,0,0,0,100,58l1.66-.89c.12-.06.24-.1.31.1a6.87,6.87,0,0,0-.77.85,6.21,6.21,0,0,1-.66.69c-.43.48-1,.79-1.35,1.39a.81.81,0,0,1-.91.43,1.82,1.82,0,0,0-.57,0l-.19.51c.2,0,.33,0,.46,0a4.68,4.68,0,0,1,.48.11,1.15,1.15,0,0,1-.09.32,12.4,12.4,0,0,1-1.7,1.62,11.85,11.85,0,0,0-1.45,1.18,48.86,48.86,0,0,1-4,3.2c-1,.78-2.08,1.48-3.11,2.22a2.23,2.23,0,0,0-.36.44,3.4,3.4,0,0,1,.46-.08s.08.08.11.12a.08.08,0,0,1,0,.08c-.19.17-.38.13-.56-.13-.3.19-.72.22-.88.62a1.21,1.21,0,0,0-.34.09c-.83.51-1.65,1-2.36,1.49l-.32,1c-.2.12-.45.23-.6.06-.36-.43-.64-.21-1,0,.08.25.28.12.45.2a5.34,5.34,0,0,0-.56.47c-.07.07,0,.22-.07.34.28-.12.52-.36.92-.29-.08.14-.11.24-.17.28a11.8,11.8,0,0,1-1.89,1,.43.43,0,0,0-.35.47,5.33,5.33,0,0,0,1.2-.25c1-.41,1.89-.88,2.81-1.36.63-.34,1.24-.73,1.85-1.1l2-1.21c.47-.3.93-.61,1.4-.9A2.24,2.24,0,0,1,90.4,71a3,3,0,0,1-.42.59,8.88,8.88,0,0,1-.83.52,10.13,10.13,0,0,0-1.83,1.11c-.49.45-1.14.61-1.6,1.08a2.87,2.87,0,0,1-.9.37,1.59,1.59,0,0,0,.23.13c.19.06.41.14.35.38s-.21.24-.34.29c-.46.17-.93.28-1.38.47a1.79,1.79,0,0,0-.49.39.87.87,0,0,0,.4,0,1.21,1.21,0,0,1,.88,0c-.07.43-.41.42-.73.44a2,2,0,0,1-1.57.78l-.12.41a2.52,2.52,0,0,0,1.53-.42.61.61,0,0,1,.56,0c.32.08.45,0,.48-.29a.57.57,0,0,1,.45-.56c1-.27,1.74-1,2.71-1.34a.45.45,0,0,0,.16-.12,3.92,3.92,0,0,1,1.31-.84,6,6,0,0,0,.85-.49c.33-.2.66-.41,1-.64A7.73,7.73,0,0,1,92,72.5a10.7,10.7,0,0,1,1.21-.38,1.47,1.47,0,0,0,.42-.24c.64-.46,1.26-.93,1.92-1.42l.4.13c.14,0,.29-.17.44,0-.18.26-.54.38-.58.75a.38.38,0,0,1-.18.22l-1.26.92a14.73,14.73,0,0,0-2.5,1.88c-.08.09-.23.1-.34.17a12.32,12.32,0,0,0-2.08,1.22l.19.31c-.39.19-.77.52-1.14.52a1.24,1.24,0,0,0-.85.34,2.94,2.94,0,0,1-.49.32l-3.12,1.43c-.29.13-.59.24-.88.39-.09,0-.15.17-.23.25.21.22.38.33.64.21s.78-.34,1.17-.52c1.46-.65,2.94-1.28,4.38-2,.37-.18.86-.3,1-.83.06-.16.37-.24.57-.34a3.67,3.67,0,0,1,.72-.27c.32-.08.36-.34.44-.54.42-.17.82-.3,1.19-.49a10.72,10.72,0,0,0,1.17-.71c.67-.47.66-.48,1.13-.52a1.19,1.19,0,0,1-.46.39c-.15.09-.24.21,0,.41l1.3-.85a13.66,13.66,0,0,1,2.41-1.5,1.6,1.6,0,0,0,.77-.56,5,5,0,0,1,1.45-1.42c.39-.34.85-.6,1.26-.93.64-.51,1.28-1,1.89-1.56a45.23,45.23,0,0,0,3.9-3.29c.33-.36.7-.68,1-1a10.2,10.2,0,0,1,1.33-1.3c.78-.55,1.39-1.29,2.12-1.9a8.72,8.72,0,0,0,1.15-1.2c.9-1.08,1.78-2.19,2.68-3.27a11.23,11.23,0,0,1,1-1,1,1,0,0,1,.39-.15l-1.36,2.06h0l-.42.41,0,0c-.14.07-.35.11-.42.23-.47.78-1.27,1.33-1.54,2.26a2.12,2.12,0,0,1-.57.79c-.55.57-1.12,1.12-1.69,1.68a.68.68,0,0,0,.65-.16.38.38,0,0,1,.48-.15c.2-.67.78-1,1.17-1.56a.59.59,0,0,1,.34-.18,2,2,0,0,0,.81-.52,11.83,11.83,0,0,0,2.27-2.57c.31-.49.74-.9,1.08-1.38a9.62,9.62,0,0,1,1.32-1.31,1.34,1.34,0,0,1,.42-.14,3.54,3.54,0,0,1-.06.63c-.46,1.57-.93,3.14-1.38,4.71-.24.82-.49,1.64-.68,2.46s-.34,1.81-.56,2.7c-.5,2-.82,4.11-1.16,6.18-.29,1.75-.66,3.48-1,5.21-.27,1.32-.59,2.62-.85,3.93a9.65,9.65,0,0,0-.19,3.59,9.87,9.87,0,0,0,.26,1.44,1,1,0,0,1,0,.93,1.73,1.73,0,0,0-.11,1c0,.09.14.2.24.26s.18-.07.21-.14.2-.42.5-.4a2.64,2.64,0,0,1,.34.75c0,.28-.19.57.06.89l.87.15c.06-.09.11-.23.22-.29a3.75,3.75,0,0,0,1.49-2.24c.39-1.25.73-2.52,1.09-3.77.22-.76.42-1.52.67-2.27A53.79,53.79,0,0,0,122,71.78a65.35,65.35,0,0,1,1.73-7.67c.38-1.28.82-2.55,1.22-3.84.5-1.62,1-3.26,1.48-4.89,1-3.16,2-6.32,2.93-9.48.23-.76.47-1.51.63-2.27a8.63,8.63,0,0,0,.67-2.28c.65.38.66,1,1,1.49l.34-.07c.38.83.76,1.63,1.12,2.43a2.81,2.81,0,0,1,.18.56,12.88,12.88,0,0,0,.86,1.94c0,.06.23.07.34.07a.39.39,0,0,0,.06-.26c-.16-.39-.36-.77-.5-1.17a3.57,3.57,0,0,1-.08-.75c.16.14.27.19.29.26a4.19,4.19,0,0,0,.67,1.51,1.21,1.21,0,0,1,.11.48,4,4,0,0,0,.82,1.86,3,3,0,0,1,.28.6.61.61,0,0,1,.52.48c.33,1,.68,2,1,3,.09.3.15.62.23.94l-.47,0c.15.58.29,1.14.44,1.7a6.52,6.52,0,0,0,.29.73c0,.06.16.08.24.11h0a8.18,8.18,0,0,1-.34-1.84,12.3,12.3,0,0,1,.51,1.26c0,.1.08.25.3.16a4.44,4.44,0,0,1-.15-.52c0-.06.1-.15.17-.19s.13.06.15.1a4.81,4.81,0,0,0,.13.66,28.72,28.72,0,0,0,.9,2.86,3,3,0,0,1,.23.94.82.82,0,0,0,.38.61,3,3,0,0,0-.17-1.47,5,5,0,0,1-.24-1c.25-.11.27,0,.3.15.16.53.31,1.07.48,1.6a2.28,2.28,0,0,0,.15.33c.25.3.51-.07.69.19a.71.71,0,0,1,.09.74c-.28.1-.24-.23-.4-.3s-.1.09-.1.13a3.65,3.65,0,0,0,0,.47.75.75,0,0,1,.52.5c.09.24.22.47.29.72a6.62,6.62,0,0,1,.45,1.69c0,1.21.2,2.4.28,3.59a2.17,2.17,0,0,0,.19.66.31.31,0,0,0,.21.14c.33,0,.38.21.39.44a1.6,1.6,0,0,1-.29,1c-.2-.49-.39-1-.59-1.42l-.07,0,.22,1.83,0,0,.52,1.32a.54.54,0,0,0,.18,0c.25-.12.36-.09.35.09,0,.77,0,1.54-.07,2.31l0,0,0,0c-.24-.14-.15-.4-.22-.6s-.07-.77-.56-1.09c.11.45.21.78.28,1.12s.08.5.11.76l0,0v0h0a2.57,2.57,0,0,1,.39,1.6l0,0h0v0c.13.3.26.59.4.88a1.7,1.7,0,0,0,.18.26,6,6,0,0,0-.23-1.58c-.06-.32-.11-.64-.17-1l0,0,0,0c.1-.06.27-.12.28-.19a8.29,8.29,0,0,0,0-.86,1.53,1.53,0,0,1,0-.56,1.84,1.84,0,0,1,.24.84c0,.25,0,.52.35.65a.28.28,0,0,1,.16.22c.09.82.56,1.59.35,2.45-.33-.22-.19-.71-.54-1-.26.35,0,.74-.13,1.08-.13.11-.21,0-.3,0a1.57,1.57,0,0,0,.45,1.21c.09.08.09.24.14.36l0,0h0c.13.32.37.66.33,1A2.26,2.26,0,0,0,146,82h0a1.61,1.61,0,0,1-.05,1.24.7.7,0,0,0,0,.74,7.6,7.6,0,0,1,.82,2c.58,1.57.62,1.07,0,2.72.59.53.23,1.26.27,2l.53-.13c.14-.47.25-.87.36-1.27.36.13.33.37.27.59a10.12,10.12,0,0,1-.33,1.23c-.13.4-.29.79-.44,1.17.31.18.31.18.67,0,.21-.73.42-1.45.64-2.17a7.07,7.07,0,0,1,.83-2.3,5.61,5.61,0,0,1,0,.75,16.14,16.14,0,0,0-.39,2.31c0,.23-.2.47-.28.71s-.31.36-.19.65c.73,0,.69-.85,1.12-1.15l.36.22c.22-.41.42-.8.62-1.19.41,0,.58-.24.38-.57s-.14-.39,0-.53a1.39,1.39,0,0,1,.48-.2c.39-1,.43-1.06.73-1.27a5.77,5.77,0,0,1-.31,2.12A1.93,1.93,0,0,0,152,91a.66.66,0,0,1-.06.64c-.11.22-.42.35-.27.7.14-.09.33-.15.38-.27a10.92,10.92,0,0,0,.87-2.29,6.66,6.66,0,0,1,.25-1,1.81,1.81,0,0,1,.22-.35,1.44,1.44,0,0,1,.08.39,5.09,5.09,0,0,1,0,.56c.08,0,.18-.06.21-.12a6.14,6.14,0,0,0,.26-1.81c.05-.67,0-1.41.76-1.7,0-.23-.11-.46,0-.58.29-.47.62-.9.95-1.34,0,0,.11,0,.24-.06a8.58,8.58,0,0,1-.4,1.47c.09,0,.2,0,.23-.08.15-.25.26-.52.39-.79s.26-.8-.21-1.09a.24.24,0,0,1-.06-.08.4.4,0,0,1,.18-.5c.19-.11.3,0,.36.18,0,0,.09.07.16.12.08-.21.15-.43.24-.63a.75.75,0,0,0-.2-1l-.35-.3a1.64,1.64,0,0,0,.18-.84.55.55,0,0,1,.46-.56c.15,0,.31,0,.48-.08-.27.69-.27.69,0,.9a4.11,4.11,0,0,0,.25-.52c.22-.61.42-1.23.63-1.84.15-.46.28-.93.78-1.14l-.25.91c-.08.34-.1.7-.43.93a.63.63,0,0,0,.51-.38c.12-.38.22-.75.35-1.12.49-1.39,1-2.77,1.49-4.15a2.22,2.22,0,0,1,.5-1l.93-2.56c-.33,0-.48.22-.59.5-.3.77-.62,1.54-.92,2.32a.42.42,0,0,1-.43.29c.23-.64.47-1.28.71-1.91s.45-1.3.7-1.94c.45-1.19.92-2.37,1.37-3.57.6-1.62,1.18-3.25,1.77-4.88.1-.28.19-.56.26-.84s-.08-.32-.36-.3l-.21,0c-.16-.63.69-.3.66-.78l-.44,0c.49-1.32.93-2.62,1.45-3.87.43-1,1-2,1.43-3,.19-.42.36-.85.51-1.28a8.63,8.63,0,0,0,.29-1.11s-.12-.13-.2-.16a.24.24,0,0,0-.15.08.9.9,0,0,1-.48.86c-.23-.32.33-.63-.06-.9a2.83,2.83,0,0,0-.69,1.37.89.89,0,0,1-.17.42,1.49,1.49,0,0,0-.39.78,1.77,1.77,0,0,1-.15.46c-.18.37-.4.72-.57,1.09s-.36.85-.55,1.26a1.87,1.87,0,0,1-.54.8,5.43,5.43,0,0,1,.15-.63c.27-.74.54-1.48.85-2.2a19.69,19.69,0,0,0,1.17-2.8,3.19,3.19,0,0,0,0-.54l-.41.06a2.27,2.27,0,0,1,.08-.51c.12-.27.3-.51.42-.78a1.31,1.31,0,0,1,.87-.86c.17,0,.27-.32.43-.54l-.52,0,0-.4c-.39,0-.48.33-.61.6-.27.59-.54,1.19-.82,1.78a2.67,2.67,0,0,1-.32.43.93.93,0,0,1,.05-.58c0-.12.17-.28.13-.34-.26-.4.11-.67.17-1,0-.11,0-.23.07-.33-.34-.16-.44-.33-.28-.48a5.57,5.57,0,0,1,.59-.5h0v0l0,0a2.54,2.54,0,0,0,.75-1.15c.06-.21.14-.42.21-.63l.43-.54h0a.61.61,0,0,1-.18-.86,1.18,1.18,0,0,0,.06-.27l-.3-.13a10,10,0,0,1,1.3-2.64h0l0,0a6.77,6.77,0,0,1,.86-1.92.84.84,0,0,0,.14-.61s-.06,0-.07,0C169.31,37.42,169,37.83,168.84,38.27ZM148.49,57.59a1.28,1.28,0,0,1,.06.33s-.08.07-.13.09,0,0-.06-.07A.22.22,0,0,1,148.49,57.59Zm-.23-.47s0,0,0,.06l-.06,0,0-.06S148.25,57.11,148.26,57.12Zm-.8.3s.09.09.09.12a.4.4,0,0,1-.09.15,1.1,1.1,0,0,1,0-.18A.29.29,0,0,1,147.46,57.42Zm-.61-.83a4,4,0,0,1,.29,1.59c-.09,0-.18,0-.19,0A2.06,2.06,0,0,1,146.85,56.59ZM101.18,57l0-.08.14,0,0,.06ZM83.43,74.31v-.54c.18.23,0,.39,0,.54Zm.48.09a1.22,1.22,0,0,1-.33,0s-.1-.07-.15-.11l.18-.06c.11,0,.22,0,.34,0S83.93,74.4,83.91,74.4Zm.23-.88-.21-.11.22,0s0,.07.06.11S84.15,73.53,84.14,73.52Zm1-.53a2.4,2.4,0,0,1-.51-.07.41.41,0,0,1,.5-.37c.07,0,.15.1.18.17A.18.18,0,0,1,85.09,73Zm2.1-1.8a3.92,3.92,0,0,0-1,.69c-.06.07-.25,0-.58.08a5.84,5.84,0,0,1,1-.83,1.23,1.23,0,0,0,.29-.31l.35-.14c.27-.12.42,0,.57.28A2.93,2.93,0,0,0,87.19,71.19Zm-2.68,5.09.47-.43C84.87,76.05,84.85,76.34,84.51,76.28Zm.53-.47.37-.07C85.31,76.06,85.17,75.89,85,75.81Zm1.83-1.46c-.13.26-.33.12-.52.05Zm-1,1.15s0,0,0-.07l.09,0,0,.11Zm.11-.57.41-.53c0,.19.07.37.11.55Zm.57,0,.61-.27C86.9,75.11,86.9,75.12,86.51,75Zm.86-.67a2.73,2.73,0,0,1-.41,0l.5-.33C87.62,74.2,87.48,74.26,87.37,74.29Zm1.42-.55a.88.88,0,0,1-.2-.09s.11-.07.16-.07.11,0,.16.07S88.83,73.74,88.79,73.74ZM91,70.54a5.14,5.14,0,0,1,2.14-1.47A4.6,4.6,0,0,1,91,70.54ZM93.22,69c.08-.28.34-.38.57-.51C93.77,68.87,93.77,68.88,93.22,69Zm1.65-1a6.55,6.55,0,0,1-.53.39l-.14-.16.67-.59C95.06,67.83,95,67.94,94.87,68Zm3.34.52,0,.07-.09.14a1.1,1.1,0,0,1-.08-.1Zm-1,3.68-.9.69L96,72.84l.26,0c0-.12,0-.3.06-.36.35-.28.62-.7,1.13-.74C97.49,72,97.35,72.1,97.19,72.21Zm.34-.45a1,1,0,0,1,.79-.54A.86.86,0,0,1,97.53,71.76Zm.84-.57a.86.86,0,0,1,.78-.56A.83.83,0,0,1,98.37,71.19Zm1.7-1.1s-.13-.07-.19-.1a.52.52,0,0,1,.18-.18s.1,0,.19.08C100.19,70,100.14,70.06,100.07,70.09Zm2.53-13.48a1.12,1.12,0,0,1-.26.08c-.07-.19.06-.25.18-.29s.11,0,.17.06S102.64,56.58,102.6,56.61Zm9.23-10.83c-.24.28-.28.74-.82.93a3.14,3.14,0,0,1,.45-1.6A16.41,16.41,0,0,0,112.78,43c0-.09.17-.14.29-.23.22.5-.28.74-.29,1.12s-.53.6-.35,1A9.23,9.23,0,0,1,111.83,45.78Zm.87,3.1a.4.4,0,0,1,.13-.52Zm.2-.61c.09-.21.15-.44.51-.55C113.27,48,113.15,48.22,112.9,48.27Zm.77-.91c0-.5,0-.5.51-.92Zm.58-12c0-.05.09-.07.14-.1s.06.13,0,.18-.1.06-.15.09S114.23,35.38,114.25,35.34Zm.06-.88a3,3,0,0,1,.27-.35,4.63,4.63,0,0,1,.07.52s-.07.11-.12.12-.15,0-.17,0A.34.34,0,0,1,114.31,34.46Zm.08,11.2h0v.1Zm0,0c.16-.14.27-.36.53-.32Zm.55-.33v-.18l0,.18Zm-.09-11.57c0,.16-.08.3-.27.31a9.93,9.93,0,0,0,0-2.11,15.08,15.08,0,0,0-.3-2.52,8,8,0,0,0-.53-1.89c-.38-.9-.81-1.78-1.23-2.67a2.11,2.11,0,0,1-.25-.66c.21.17.31.23.39.31a11.57,11.57,0,0,1,2,3.14,6.94,6.94,0,0,1,.5,2.59A13.29,13.29,0,0,1,114.87,33.75Zm1.4,22.88c-.07.23-.18.23-.41,0l.39-.39A.83.83,0,0,1,116.27,56.63Zm2-15.05-.41.3C117.94,41.73,118,41.57,118.25,41.58Zm-.49.44,0,.09s0,0,0,0Zm-.08,12.08a.59.59,0,0,1,0-.13c0-.22,0-.38.35-.27ZM118,44l0-.09.36-.09Zm.35-.2-.06-.21h0l0,.22Zm0-2.86c.22-.41.44-.82.76-1.38C119,40.47,118.83,40.66,118.35,40.9Zm3.4-12.75c0-.12-.09-.24-.13-.36l.16-.1.33.66C121.84,28.48,121.81,28.28,121.75,28.15Zm1.19-.61c-.41-.7-.8-1.42-1.21-2.12-.11-.2-.31-.34-.43-.53s0-.21-.07-.48a7.89,7.89,0,0,1,1.08,1.33,10.79,10.79,0,0,0,.84,1.2,4.78,4.78,0,0,1,.79,2.14A7.25,7.25,0,0,1,122.94,27.54Zm2.94,6.18a3,3,0,0,1-.24-1c-.06-.29-.1-.58-.17-.86s-.15-.57-.21-.85a2.72,2.72,0,0,1-.2-.83c.09,0,.18,0,.2,0A7.2,7.2,0,0,1,126,32.9,2.89,2.89,0,0,1,125.88,33.72Zm2.65-7.67c-.05,0-.14,0-.15,0a1.42,1.42,0,0,1-.1-.29,1.42,1.42,0,0,1,.29.1S128.55,26,128.53,26.05ZM131,26l-.44-.74C131,25.41,131,25.62,131,26Zm2,.67c-.06.12,0,.36-.25.3-.26-.69-.56-1.39,0-2.09a.41.41,0,0,1,.26.59c-.22.36,0,.54.22.81Q133.08,26.49,133,26.7Zm.51-.7a.21.21,0,0,1,0-.07s0,0,0-.05,0,0,0,.06S133.5,26,133.48,26Zm.25-1.43s-.09-.06-.09-.08a3.12,3.12,0,0,1,.07-.46c0,.29.06.37.06.46A.12.12,0,0,1,133.73,24.57Zm.36-.11,0,.05v-.06Zm0,1.47-.07-.1.06,0,0,.07Zm3.12,25.6-.22-.7C137.36,51.07,137.32,51.29,137.21,51.53Zm.41.94s-.05-.1-.07-.16,0,0,.07-.05a.52.52,0,0,1,.06.15S137.64,52.45,137.62,52.47ZM138,54a.2.2,0,0,1,0-.08l.06-.07,0,.09Zm.54,1.29s-.07,0-.06,0a.33.33,0,0,1,.07-.13l.1.1Zm4.78-3.81s-.07-.09-.07-.14,0-.09.08-.13l.08.14Zm.17-2.16h0l0-.29c-.42-.24-.42-.24-.48-1.06.22.47.35.77.48,1.07ZM144,75Zm.18-28.63c.23,0,.54.23.47.44a.12.12,0,0,1-.07.07.42.42,0,0,1-.52-.38C144.1,46.41,144.17,46.37,144.21,46.33Zm-.5.93a.7.7,0,0,1,.26.79A.74.74,0,0,1,143.71,47.26Zm.09,21.41c-.05-.13-.1-.26-.14-.39s0,0,.05-.07.11.08.13.13a1.12,1.12,0,0,1,0,.32S143.8,68.68,143.8,68.67Zm.13-16.08s-.1.06-.16.1l-.16-.33.17-.07C143.94,52.34,144,52.44,143.93,52.59Zm.17-.72c-.16-.52-.36-1-.53-1.56,0-.05,0-.12.05-.18.29.29.29.29.47.85.1.31.2.62.29.93a7.23,7.23,0,0,0,.32,1c.14.29.13.6.27.91l-.35,0A7,7,0,0,0,144.1,51.87Zm.2,21.51s-.06-.11-.05-.15.1-.08.13-.06.05.09.07.14Zm0-11a2.46,2.46,0,0,1,.43.58,6,6,0,0,1,.11.76,6.88,6.88,0,0,0,.25.79C144.62,64.13,144.53,63.87,144.32,62.38Zm1.92,17.91.06,0a.19.19,0,0,1,0,.08h-.07Zm-.06-19.7v.33A.3.3,0,0,1,146.18,60.59Zm-.07,18.74v.55c-.19-.25-.05-.4,0-.55Zm-.29-22.67.15.05s-.07.11-.11.12-.1,0-.15,0Zm-.56.22a.75.75,0,0,1,0-.15s0,0,.06,0l.06.15Zm.08-2,.35.87C145.11,55.54,145.22,55.23,145.34,54.92Zm.49,24.53a3,3,0,0,1-.22-1.54c.25,0,.26.21.29.39.08.34.14.69.21,1Zm.47,2.63L146,82c.1-.18-.07-.48.26-.54C146.49,81.66,146.35,81.87,146.3,82.08Zm.38-.26a1.21,1.21,0,0,1,0-.3.89.89,0,0,1,.17.18.42.42,0,0,1,0,.16C146.78,81.85,146.69,81.85,146.68,81.82Zm.45,2.58c-.33-.25-.37-.36-.27-.68s.3-.12.46-.16a1.4,1.4,0,0,0-.16.29C147.13,84,147.3,84.23,147.13,84.4Zm.2-.88a1,1,0,0,1-.24-1.11c.11.16.22.25.23.35A6.43,6.43,0,0,1,147.33,83.52Zm1-15a3.45,3.45,0,0,1-.45-1.69,5,5,0,0,1,.52,1.72S148.32,68.57,148.31,68.55Zm.16.28s-.09,0-.09-.08a.3.3,0,0,1,0-.13.57.57,0,0,1,.08.13S148.47,68.81,148.47,68.83Zm.21,1-.06,0,0-.08.11,0Zm.46-.79c.12-.11.23-.26.28-.24s.2.16.41.36Zm1.09-.54a3.8,3.8,0,0,1,.18.54.41.41,0,0,1-.2.49A1.72,1.72,0,0,1,150.23,68.51Zm-.09,21.94c0-.39,0-.43.24-.54s.29,0,.35.18Zm2.24-9,0-.08.07,0Zm.64-1.94a2,2,0,0,1-.35.69c0-.14.05-.28.09-.42s.15-.42.22-.62l.11,0A1.76,1.76,0,0,1,153,79.46Zm.56,8.37-.06,0,.08,0Zm2.87-5.57c-.55-.29-.39-.7-.31-1.09A1.65,1.65,0,0,1,156.45,82.26Zm.66-2.91c-.35-.77-.2-1.29.52-1.52C157.61,78.41,157.79,79,157.11,79.35Zm.95-2.63a1.31,1.31,0,0,1-.25.22,1,1,0,0,1,0-.34c0-.06.13-.1.25-.19C158.06,76.56,158.1,76.66,158.06,76.72Zm.43-1.34,0-.07h.06Zm.45,1.68-.16-.4.09,0c0,.14,0,.29.07.43Zm.26-1.1c0-.31,0-.41,0-.46a1.55,1.55,0,0,1,.23-.21C159.39,75.45,159.33,75.62,159.2,76Zm1-2.14-.61.6.54-1.57C160.1,73.15,160.12,73.46,160.15,73.82Zm0-2.94s-.08,0-.08,0l.09-.26.1.06A1.89,1.89,0,0,1,160.16,70.88Zm1.28-21.61a2.41,2.41,0,0,1-.54,0l.61-.38C161.71,49.11,161.57,49.24,161.44,49.27Zm.38-.91a.17.17,0,0,1-.08-.14,1.56,1.56,0,0,1,.11-.24c.06.07.11.1.13.15S161.91,48.4,161.82,48.36Zm3-6.37s0,.12.08.24a1.56,1.56,0,0,1-.25.17s-.11-.07-.11-.11S164.76,41.92,164.85,42Zm-.44.7c.05,0,.15.07.22.11s-.09.21-.14.21a3.5,3.5,0,0,1-.45-.07A2.19,2.19,0,0,1,164.41,42.69Zm-.37.9s.09.12.08.15A1,1,0,0,1,164,44c-.05-.09-.12-.17-.11-.19A1.62,1.62,0,0,1,164,43.59Zm-1.19,13.75-.09-.09s.05,0,.07,0,0,0,0,.05Zm.05-6.77a.2.2,0,0,1,.09-.15s.08,0,.16.08l-.15.19S162.9,50.61,162.9,50.57Zm.23,6.12s-.09,0-.14.05-.05-.05,0-.07.05-.23.07-.35c.09,0,.18.08.18.1A.64.64,0,0,1,163.13,56.69Zm.41-12.08s.05.1.1.21a1.82,1.82,0,0,1-.3.11.3.3,0,0,1-.07-.16A.19.19,0,0,1,163.54,44.61ZM165.88,53S166,53,166,53s.13.07.13.1c0,.18,0,.35-.05.52l-.23,0A4.17,4.17,0,0,1,165.88,53Zm-.1.86s0,.05,0,.07l-.13.05s0,0-.05-.06A.59.59,0,0,1,165.78,53.9Zm-1.16-4.79v.16l0-.05S164.61,49.15,164.62,49.11Zm-1.06,4.4s.07-.07.12-.11,0,.12,0,.17-.08.07-.13.11S163.54,53.56,163.56,53.51Zm.07,1.83a.53.53,0,0,1,.07-.43C163.85,55.1,163.63,55.2,163.63,55.34Zm0-6.05a.29.29,0,0,1-.22-.09c-.06-.14.11-.31.27-.3s.09.07.18.14A1.39,1.39,0,0,1,163.61,49.29Zm.32,5.17a.7.7,0,0,1,0-.24s.08-.07.13-.1a.87.87,0,0,1,.05.22S164,54.4,163.93,54.46Zm.21-1.92c0,.05-.09.07-.14.1s-.08-.13-.06-.15a.72.72,0,0,1,.19-.11S164.17,52.5,164.14,52.54Zm.07-5.06a.7.7,0,0,1,0-.25c0-.08.12-.13.19-.19l.14.05a1.26,1.26,0,0,1-.1.33S164.29,47.46,164.21,47.48Zm.36,5.55c-.14-.57-.14-.57.65-1.44C165,52.08,165.05,52.67,164.57,53Zm.19-2.37a.25.25,0,0,1,.12-.13s.08,0,.19.11l-.24.16S164.76,50.7,164.76,50.66Zm.45-.58s-.09-.09-.08-.12a.25.25,0,0,1,.08-.16s.09,0,.16.06Zm.42.33s.08.12.06.16a4.43,4.43,0,0,1-.28.51.45.45,0,0,1,.06-.66A.15.15,0,0,1,165.63,50.41Zm-.61-4.3s-.13,0-.18,0-.08-.09-.11-.14,0-.08,0-.1c.25-.48.51-1,.83-1.55a1.19,1.19,0,0,1,.11.26C165.54,45.15,165.17,45.58,165,46.11Zm.84-2.22a.19.19,0,0,1-.13.1s-.13,0-.13-.07a.2.2,0,0,1,.06-.17,1.43,1.43,0,0,1,.21-.12A.75.75,0,0,1,165.86,43.89Zm.7,1-.08-.13s.09-.08.13-.08.06.08.09.11Zm.7-.9c-.12.08-.26.2-.36,0,0,0,0-.18.1-.22s.25,0,.3.18S167.28,44,167.26,44Zm2.36-7h0l0,0A0,0,0,0,1,169.62,37Zm-25,41v0l0,0v0Zm-1.56-4s0,0-.08,0-.08.11-.07.14a2,2,0,0,0,.19.31l.08,0Zm26.57-37,0-.09-.07.07Zm-8.76,37.93h0a1,1,0,0,1,0-.24c0-.18-.08-.17-.19-.16.06.14.13.27.19.41h0ZM107.22,48.25a.68.68,0,0,0-.43.66C107.14,48.61,107.14,48.6,107.22,48.25Zm-16.17,26,.07-.17,0,0a.36.36,0,0,0,0,.09A1.17,1.17,0,0,0,91.05,74.26ZM106.78,49a5.68,5.68,0,0,0-.68.61c-.14.17-.34.37-.2.64l.61-.71C106.64,49.35,106.81,49.2,106.78,49Zm0-.05,0,0h0a0,0,0,0,0,0,0h0Zm-10.17-31,0,.08.09-.05Zm.06,43.76.17-.07,0-.14a.67.67,0,0,0-.17.08S96.67,61.65,96.68,61.7Zm75.38-35,0,0v0l0,0Zm-.25,9.56c-.1.16-.25.31-.08.57.11-.18.21-.32.3-.48s0-.1-.05-.15S171.84,36.21,171.81,36.25Zm-67,14.88a2.91,2.91,0,0,0,.51-.28,6.44,6.44,0,0,0,.55-.61C105.18,50.23,105,50.38,104.81,51.13ZM96.53,60.4l.16-.07a.88.88,0,0,0,0-.15s-.12,0-.16.08S96.51,60.35,96.53,60.4Zm9.34-10.16h0l0,0Zm39.26-1.33,0-.07,0,.07Zm-39.24,1.31,0,0a0,0,0,0,1,0,0ZM94.71,20.49l-.08.12h0l.05.3h0l-.1-.29.11.08Zm.93-2.23.42-.55C95.66,17.72,95.57,17.83,95.64,18.26ZM83.73,75.46l.07,0-.07,0Zm7.52-1.31-.11-.09,0,0Zm4.15-2.9-.07,0s0,0,0,0l.07,0Zm-.11-52.54.31-.39C95.4,18.37,95.39,18.4,95.29,18.71Zm.77-1h0Zm-.56,5,0,0,0,.07Zm.15-4.4a.09.09,0,0,0,0,0v0h0l0,0Zm.41-.61h0l0-.06ZM96,17.49l.06.16s0-.1,0-.14S96,17.49,96,17.49Zm53,41.33v0h0v0ZM92.5,20.19l0-.07h-.07ZM85.41,35.8s.14,0,.15-.08a.88.88,0,0,0,.11-.45c0-.16-.22-.21-.4-.13a3.38,3.38,0,0,0,0,.45A.38.38,0,0,0,85.41,35.8Zm-2,3.81s0,0,.06,0l-.11,0A.07.07,0,0,0,83.38,39.61Zm1.73-4.53h0c.06,0,.13.07.17.06h0v0Zm.56-1.24a2.22,2.22,0,0,0-.56,1.24A1.4,1.4,0,0,0,85.67,33.84Zm4.46-8.5h0c0,.14-.09.28-.14.42.22-.07.19-.25.14-.43h0Zm4.35-5.53-.31.53C94.41,20.38,94.42,20.19,94.48,19.81Zm-.31.8c0-.07,0-.15,0-.23a3,3,0,0,0-.75,1.47A3.8,3.8,0,0,0,94.17,20.61Zm0-.27h0a.09.09,0,0,0,0,.05v0Zm-1.67,1.3,0-.07h-.07ZM86,33.3c0-.09,0-.18,0-.38a1.74,1.74,0,0,0-.17.31s.05.08.08.12S86,33.32,86,33.3Zm6.74-10.21s0,0-.06-.07,0,.1-.07.16,0,0,.06.07S92.75,23.14,92.77,23.09Zm-2,1.94,0-.62C90.72,24.62,90.63,24.83,90.76,25Zm2.63-3.12s0,0,0-.06l0,0Zm-2.66,2.5v0h0Zm0,.65,0,0v0Zm.61-1.5,0,0,0,0Zm-.63,1.49h0Zm-.43.14a1.39,1.39,0,0,1-.19.15.33.33,0,0,0,.4-.13,1.12,1.12,0,0,1,.22-.16A.36.36,0,0,0,90.33,25.19ZM88.2,30.85h-.06l0,.09Zm1.29-1.5s0,.09.06.14l.24-.14c-.12-.08-.17-.13-.2-.12S89.49,29.3,89.49,29.35Zm1.92-5.82v0h0Zm-5.35,11.2a.94.94,0,0,0,0-.16l-.07,0a.47.47,0,0,0,0,.16S86.06,34.74,86.06,34.73Zm5.62-9.1s0,.05,0,.08l0-.07,0-.07S91.68,25.61,91.68,25.63Zm-.26-2.13c.18,0,.24-.15.33-.26s.25-.37.38-.56h0c-.11,0-.27,0-.31.09A6.17,6.17,0,0,0,91.42,23.5ZM85.1,35.08h0ZM81.17,77.8c.07,0,.1-.14.16-.24a1.21,1.21,0,0,0-1.33.32A1.37,1.37,0,0,0,81.17,77.8ZM79,78.25l0,0h0v0Zm.86,0a1.6,1.6,0,0,0,.1-.31,1.77,1.77,0,0,0-1,.36,2.4,2.4,0,0,0,.29.19C79.63,78.58,79.67,78.56,79.86,78.2Zm.13-.31h0v0Zm-2.28,6,0,0h-.07Zm.07-2.17-.72.42C77.49,82.27,77.7,82.11,77.78,81.75Zm1.82.17,0,.11.55-.17,0-.11Zm2.26.7.06-.06a.28.28,0,0,0,0-.08ZM81.68,81a.54.54,0,0,0,0,.15L82,81l0-.1A1.4,1.4,0,0,0,81.68,81Zm-2.52-5a.08.08,0,0,0,0,.1A.34.34,0,0,0,79.16,76Zm1.78,5.58s0,.1,0,.15.12,0,.13-.08,0-.1,0-.15S81,81.53,80.94,81.57Zm-2-3.31c-.52.15-1,.29-1.56.47a.45.45,0,0,0-.35.51c.13,0,.24,0,.31,0a1.6,1.6,0,0,1,1-.31C78.72,78.94,79,78.65,79,78.26ZM93.23,29.08h0l0,0Zm.33-2.21,0-.07s-.06,0-.08,0,0,0,0,.07Zm-.4,2.19s0,0-.07,0h0s0,.11,0,.16a.35.35,0,0,0,.05.08.28.28,0,0,0,0-.09l0-.15h.12S93.18,29.06,93.16,29.06Zm.23-7.14,0,0-.09.54C93.32,22.26,93.35,22.09,93.39,21.92Zm.5,4.38,0-.05h0ZM80.62,75.94l0,0h.06ZM93.17,22.48v.08l.09-.06h0v0ZM74.11,74.29c0,.09.1.15.22.08C74.26,74.28,74.21,74.24,74.11,74.29Zm5.48,2s0,.08,0,.07a1,1,0,0,0,.34-.06c.21-.12.4-.25.6-.38a5.21,5.21,0,0,0-.69,0C79.74,76.05,79.58,76.14,79.59,76.34Zm-1-.25h.54C79,76,78.84,75.78,78.61,76.09Zm.54,0Zm-1.81-3.23-.06,0,0,.08Zm2,2.89s-.11.06-.12.1a.68.68,0,0,0,0,.14.32.32,0,0,1,.14-.08C79.4,75.86,79.48,75.79,79.3,75.75ZM91.39,23.56c-.22.26-.43.53-.65.8C91.35,24.13,91.39,24.09,91.39,23.56ZM79.12,34.24h0v0Zm0,0-.09.48C79.27,34.62,79.15,34.43,79.12,34.26Zm-.93,2.2a.19.19,0,0,0,0-.17.19.19,0,0,0-.16,0,.35.35,0,0,0,0,.54A3.68,3.68,0,0,0,78.19,36.46Zm1.16-2.25s0-.09,0-.15l-.15.1-.05.07.07,0S79.32,34.25,79.35,34.21Zm-.34.54,0,0v0Zm0,0,0,0,0,0Zm-.43.64a.67.67,0,0,0,.43-.64C78.6,35.09,78.6,35.09,78.57,35.43Zm6.5-11.94s-.1,0-.12.06a.5.5,0,0,0,0,.13l.17-.11A.45.45,0,0,1,85.07,23.49Zm-.18.21,0,0v-.05Zm0,0s0,.05,0,.08l0-.05Zm-.44.58s0,0,0,.08l0-.06Zm0,0,0,0,0,0ZM74.22,45.65h0Zm1.26-1.43v0Zm.46-.29,0,.22h0C76,44.07,76,44,75.94,43.93Zm-20,7.75,0-.08,0,.07ZM75.29,44.2h.16C75.39,44.14,75.34,44.1,75.29,44.2ZM41,41.89c.16-.11.16-.11.16-.53a2.17,2.17,0,0,0-.36.29c0,.05,0,.17,0,.24A.18.18,0,0,0,41,41.89ZM56.11,52.71H56l0,.09ZM84.88,23.78l-.37.48A.47.47,0,0,0,84.88,23.78ZM74.36,15.23a.28.28,0,0,0,.31-.06C74.53,15.1,74.48,15.11,74.36,15.23ZM74,46h0l0,.17L74,46a.37.37,0,0,0,.21-.39L74,46Zm1.29-1.84h0v0h0Zm.69-.05h0c-.19-.14-.33,0-.49.07,0,.11,0,.24-.15.23,0,0,0-.12-.06-.21a3.8,3.8,0,0,0-.42.48c-.22.3-.43.61-.63.92h0l.79-.2Zm-.5.05h0l0,0ZM86.11,26.1a2.93,2.93,0,0,1-.13.51,15.21,15.21,0,0,1-1.14,2.1h0a.33.33,0,0,0,.42-.15c.25-.37.52-.75.75-1.14a1.36,1.36,0,0,1,.8-.79.66.66,0,0,0,.35-.31,7.22,7.22,0,0,0,.43-1,3.21,3.21,0,0,1,.9-1.48,1.19,1.19,0,0,0,.38-.66,5.92,5.92,0,0,1,1-2.18,2.31,2.31,0,0,0,.19-.52,2.6,2.6,0,0,0-.62.62c-.2.26-.42.5-.6.77L86.76,25a1.14,1.14,0,0,1-.25.24l-.09.45A.41.41,0,0,1,86.11,26.1ZM82.4,79.66a1.05,1.05,0,0,0-1.25.32,3.92,3.92,0,0,1-1.48,1c-.36.15-.73.28-1.1.42-.1,0-.27,0-.18.27a11,11,0,0,0,2.54-.9c.36-.15.71-.33,1.06-.5l.67-.33C82.55,79.83,82.49,79.7,82.4,79.66Zm79.63-10h0l0,0ZM84.44,24.36a3.34,3.34,0,0,0-.7,1.28A1.6,1.6,0,0,0,84.44,24.36Zm5,2.49v0h0Zm2.67-4.23v.07h0Zm0-.09,0,.09v-.08Zm-3.33,5.28c-.74,1.23-1.43,2.48-2,3.77,0,0,0,.13.1.29a5,5,0,0,1,.33-.69c.41-.58.69-1.23,1.16-1.78a5.2,5.2,0,0,0,.94-2.1C89,27.34,88.88,27.61,88.76,27.81Zm.69-1a.64.64,0,0,0,.19-.08c.11-.09.21-.2.31-.3C89.61,26.42,89.57,26.45,89.45,26.82Zm.5-.38h0v0Zm-.68.83a.3.3,0,0,0,.15-.4A.32.32,0,0,0,89.27,27.27Zm0,0h0Zm0,0v0h0Zm.16-.44,0,0a.08.08,0,0,1,0,0Zm-4-4,.6-1C85.6,22.27,85.6,22.27,85.47,22.9Zm-.59,5.9s0,0,0-.05v.12S84.88,28.82,84.88,28.8Zm1-4.47,0-.07,0,.06Zm-2.12,1.34h0v0l0,0a.06.06,0,0,1,0,0v0Zm0,0c-.43.48-.43.49-.51,1C83.49,26.35,83.76,26.1,83.72,25.7Zm1.14,3.05v0h0Zm-.28-.61c.08,0,.15,0,.18-.07a2.56,2.56,0,0,0,.33-.48,5.47,5.47,0,0,1,1-1.51,1.05,1.05,0,0,1,.4-.78v0h0l0,0h0c.25-.55.49-1.09.74-1.63a4.26,4.26,0,0,0-1.46,1.61c-.36.87-.78,1.71-1.17,2.57A.84.84,0,0,0,84.58,28.14Zm4.16-6.78,0,.07.06,0a.14.14,0,0,0,0-.07ZM90,18.41l0,.05s0,0,0,.07l0-.05Zm0,8c0-.2,0-.4,0-.61h0l0,0h0C90,26,90,26.2,90,26.42Zm-3.86-.34v0h0v0ZM84,29.59s0,.05.06.07l.08,0,.12-.26s-.13,0-.14,0A1,1,0,0,0,84,29.59Zm85,12.81c-.08.09-.19.16-.23.26a10.14,10.14,0,0,1-.9,1.73,1.72,1.72,0,0,0-.31,1.38c.41-.79.78-1.46,1.13-2.15.16-.32.27-.66.4-1a.17.17,0,0,0,0-.1A.59.59,0,0,0,168.93,42.4Zm.39-.47-.09-.12-.13.11.05.07Zm-4.26,20.3.06,0V62.2Zm3.6-17.46c.18-.43.28-.67.44-1.07A1,1,0,0,0,168.66,44.77ZM165.3,64.66a4.48,4.48,0,0,0-.39,1.44l.63-.35C165.56,65.34,165.74,65,165.3,64.66Zm-1.49,3.86c.77-.41.77-.41.32-1C164,67.85,163.92,68.16,163.81,68.52Zm.21-5.25a.18.18,0,0,0-.05.07s0,0,0,.08l.05-.07S164,63.29,164,63.27Zm3.52-14.47.91-.3c-.31-.1-.45-.2-.57-.18S167.5,48.42,167.54,48.8Zm.67-1.49-.1-.08s-.05.06,0,.08a.84.84,0,0,0,.06.14Zm0-1.9a.72.72,0,0,0-.12.21s0,.05,0,.07a1.43,1.43,0,0,0,.14-.2s0-.05,0-.07Zm.06-.15,0,.13.09-.1Zm0,.14v0h0v0ZM155,90a1.88,1.88,0,0,0-.66,1.6c.59-.31.74-.89,1-1.5C155.18,90.07,155.05,90,155,90Zm1.13-4.2,0-.06h-.06Zm7.43-16.72a2.18,2.18,0,0,0-.15.39,6,6,0,0,0-.09.68l.72-.46a.51.51,0,0,0,.24-.61Zm-9.1,18.31a.58.58,0,0,0-.14,0s0,.06,0,.08a1.14,1.14,0,0,0,.11.11Zm8.94-22.56,0,.09,0-.07Zm-8.79,21.69-.12,0a.25.25,0,0,0,0,.07s0,0,.06,0Zm14-40.22a.26.26,0,0,0-.17.36C168.65,46.62,168.71,46.51,168.63,46.32ZM156,86.38a.19.19,0,0,0-.16.06.79.79,0,0,0-.15.25,8.2,8.2,0,0,1-.18.86,1.49,1.49,0,0,0,.06,1.11c.09-.18.22-.31.22-.45a4.42,4.42,0,0,1,.31-1.43.67.67,0,0,0,0-.28A.18.18,0,0,0,156,86.38Zm7.06-19.74a0,0,0,0,0,0,0h0l0-.08Zm.47-1.29c-.16.49-.29.86-.42,1.23A1.19,1.19,0,0,0,163.56,65.35Zm-.71,2.1,0-.17-.07.11A.15.15,0,0,0,162.85,67.45Zm0-.17,0-.06h0l0,0h0Zm-.07-.23a.64.64,0,0,0,.08.14.39.39,0,0,0,.21-.52C162.72,66.73,162.71,66.75,162.81,67.05Zm-6.28,18.52c.11-.28.38-.54.05-1.06A2.32,2.32,0,0,0,156.53,85.57ZM167.85,42.8h0l0,0v.06l0,0Zm-.18-.54,0,0v0Zm1.47,5.28c-.17-.08-.19-.39-.5-.37,0,.2.07.37.1.53.18,0,.2-.3.4-.15h0l0-.18A.35.35,0,0,0,169.14,47.54Zm.47-9.47s0,0,0,0l0,0Zm-.24.28h0c0,.23-.05.46-.08.69h0C169.32,38.8,169.34,38.58,169.37,38.35Zm.23-.23-.24.23h0C169.51,38.32,169.6,38.26,169.6,38.12Zm-1.93,4.14v0h0ZM162,69.69v0h0Zm4.49-20.53,0,0h0v0h0Zm-.18-3.23v-.2a1.12,1.12,0,0,0,0,.13A.13.13,0,0,0,166.34,45.93Zm1.48-3.1c-.14.17,0,.37-.06.55h0Zm-1.3,6.33c.36-.37.36-.38.4-.71C166.57,48.57,166.51,48.85,166.52,49.16Zm1.31-6.39,0,0S168,42.67,167.83,42.77Zm1.81-4.72,0,0,0,0Zm.5-1.26h0Zm.74-1h.06l0-.07ZM169.07,47c0,.12,0,.24.05.36a1.17,1.17,0,0,1,.16-.34l.38-.65C169.22,46.51,169.05,46.69,169.07,47Zm.44-2.82,0,.08,0-.07Zm0-3.21c.53-.12.51-.47.49-1C169.76,40.41,169.62,40.69,169.48,41Zm.28-3.34,0,0,0,0,0,0v0Zm0,0-.12.39C169.84,38,169.81,37.82,169.76,37.66Zm.22-.36-.19.29C169.92,37.53,170,37.45,170,37.3Zm0,0v0h0s0,0,0,.06v0Zm.15-.47c0,.15-.09.29-.14.43C170.19,37.14,170.14,37,170.14,36.8ZM140.72,63.7c0,.22.13.23.27.25-.27-.29.13-.41.19-.64C140.76,63.49,140.76,63.49,140.72,63.7ZM97.37,73.19l0,0,0,0ZM85.88,79.53l-.34.1s-.05.05-.11.13.12.07.14.06a2,2,0,0,0,.34-.12S85.9,79.59,85.88,79.53Zm12-6.71a.43.43,0,0,0-.45.35C97.59,73.14,97.85,73.17,97.83,72.82Zm-1.56,1s-.07,0-.07,0a.81.81,0,0,0,0,.16l.15-.08A.47.47,0,0,0,96.27,73.84Zm-2.2.58c-.08,0-.26.09-.12.31l.5-.31C94.24,74.42,94.13,74.38,94.07,74.42Zm3.31-1.25h0l0,0S97.38,73.18,97.38,73.17Zm-.24.17a.13.13,0,0,0,.09,0l.1-.12a.39.39,0,0,0-.15,0S97.15,73.3,97.14,73.34ZM134.55,48.2c-.22.24-.09.38.1.48a.18.18,0,0,0,.21-.29A1.23,1.23,0,0,0,134.55,48.2Zm.48,1v.13h.07s0-.06,0-.08S135.05,49.2,135,49.19ZM98.57,72.42l-.07,0s0,0,0,0l.09-.07ZM116.45,89.2l.26.17a.78.78,0,0,0,.08-.23c0-.07-.08-.13-.12-.2ZM108.61,64l-.12.15.07.06.13-.2Zm-2.8,2.66v0h0Zm-5.4,4c-.46.22-.4.81-.85,1-.11.06-.14.28-.2.42h0v0h0l-.17,0h.15a4.13,4.13,0,0,1-.55.62c-.52.39-1.08.75-1.63,1.1a2.74,2.74,0,0,1-.85.47,5,5,0,0,0-1.65.82c-.38.26-.73.56-1.12.79a5.27,5.27,0,0,1-1.57.79.39.39,0,0,0-.33.44,2.65,2.65,0,0,0,1.61-.49c.15-.07.29-.16.47,0a1.24,1.24,0,0,1-.25.26,4.08,4.08,0,0,1-.71.32,4.33,4.33,0,0,1-2,.39,1,1,0,0,0-1,.43,1.23,1.23,0,0,1-.57.33,6.16,6.16,0,0,1-.61.13c-.59,1.12-1.85,1.08-2.7,1.68l.27.39a2.56,2.56,0,0,0-.82.33,3.91,3.91,0,0,1-1.94.78,1.35,1.35,0,0,0,1.27-.06,5.61,5.61,0,0,1,1.8-.76.55.55,0,0,0,.26-.14,9.79,9.79,0,0,1,1.83-1.13,2.64,2.64,0,0,1,1.91-.6.31.31,0,0,0,.19,0c.59-.4,1.36-.52,1.8-1.15a1.28,1.28,0,0,1,.63-.42,17.47,17.47,0,0,0,1.84-.91c.2-.11.3-.4.47-.59s.5-.37.61-.62a2.58,2.58,0,0,1,1.29-1.15,3.71,3.71,0,0,0,.67-.4.92.92,0,0,1,1-.16c.44-.29.81-.51,1.14-.76s.67-.34.69-.77a2.12,2.12,0,0,1-1.2.51l.4-.36a2.33,2.33,0,0,1,1.57-.9.91.91,0,0,0,.34-.17c.47-.3.94-.6,1.4-.91a3.17,3.17,0,0,0,.51-.46c.16-.16.43-.24.54-.61-.33.18-.56.3-.77.44a1.69,1.69,0,0,1-.72.26,1.94,1.94,0,0,0-.7.33,1.25,1.25,0,0,1-.79.3,2.77,2.77,0,0,1,.38-.44c.29-.21.61-.38.9-.59s.4-.2.43-.46a5.22,5.22,0,0,0-1.6.88A9.21,9.21,0,0,1,100.41,70.67ZM103.05,69l0,0h0Zm0,0h0l0,0Zm-2.13,3.1-.15,0h0Zm-.16,0Zm4.56-3.66a14.78,14.78,0,0,0,1.31-.84,2.13,2.13,0,0,0,.94-1.24A10,10,0,0,0,105.3,68.44Zm.47-1.75,0,0h0ZM103.07,69a1.12,1.12,0,0,0,.39-.13q1.07-.9,2.1-1.83a1.07,1.07,0,0,0,.21-.36A7.55,7.55,0,0,0,103.07,69Zm4.38-3.43H108a.81.81,0,0,1,0,.16l0-.16v0l-.58,0Zm-1.63,1.07c.42-.09.73-.51,1.21-.41.17-.19.57-.25.42-.65A1.8,1.8,0,0,0,105.82,66.65Zm30.09-14.9-.26-1C135.25,51.23,135.55,51.5,135.91,51.75ZM84.45,79.89a.83.83,0,0,0-.78.33l.16.39.24-.36C84.16,80.1,84.45,80.18,84.45,79.89ZM141,64h0v0Zm1.91,12.84s0,0,.06,0a.34.34,0,0,0,.14,0l-.1-.12Zm-1.53-8.66c0,.46,0,.86.38,1.19C141.69,68.46,141.69,68.46,141.4,68.14Zm1.79,9.92c-.14.24.05.36.16.53C143.46,78.35,143.43,78.18,143.19,78.06ZM141.7,64.89l.05.5A.35.35,0,0,0,141.7,64.89Zm.31,3.32.43-.22.32,1a1.17,1.17,0,0,0,0-1c-.26-.76-.47-1.55-.71-2.31,0-.09-.17-.14-.27-.2a9.84,9.84,0,0,1,.25,1.83.65.65,0,0,1-.39-.57c0-.1-.16-.17-.24-.25h0c.16.56.32,1.12.49,1.68C141.87,68.15,142,68.18,142,68.21Zm3.91,16.66c-.23-.17-.42,0-.61.07h0C145.65,85.16,145.65,85.16,145.92,84.87Zm-.59-.16,0,.22h0Zm1.18,5.22c.12-.24.19-.44,0-.67A.47.47,0,0,0,146.51,89.93Zm.31,1.79s0,.11.05.16l.21-.15-.08-.17A.93.93,0,0,0,146.82,91.72Zm-.56-.63s0,0,0,.07l0-.06,0-.07S146.26,91.07,146.26,91.09Zm-4.53-25.68h0Zm3.9,20c0,.41.3.64.46,1a1.47,1.47,0,0,0-.07-1ZM151,91.9c.57,0,.57,0,.65-.68A2.11,2.11,0,0,0,151,91.9ZM139.79,64.77l0-.07-.07,0Zm0-2.9a5.58,5.58,0,0,0,.68,2.87s.06-.06.05-.08c-.16-.72-.33-1.45-.51-2.17C140,62.28,139.86,62.08,139.79,61.87Zm-1.41-1.72h0V60.1Zm2.69,6.24-.37-1.06A1,1,0,0,0,141.07,66.39Zm-4.62-14.51A2.48,2.48,0,0,0,137,53C136.87,52.68,137,52.22,136.45,51.88Zm5.28,13.53h0v0ZM83.18,80.84s0,.06,0,.09.07-.05.08-.08,0-.06,0-.08S83.19,80.81,83.18,80.84Zm58.24-15h-.1l.05.6h0C141.39,66.23,141.4,66,141.42,65.83ZM141,64s0,0,0,0v0Zm0,.55V64c0,.14-.09.27-.12.41S141,64.46,141,64.51Zm-4.49-10.57.07.05.07,0s0-.05-.07-.05S136.54,53.93,136.51,53.94Z"/></g></g></svg>