<?xml version="1.0" encoding="UTF-8"?>
<svg width="99px" height="23px" viewBox="0 0 99 23" version="1.1" xmlns="http://www.w3.org/2000/svg" xmlns:xlink="http://www.w3.org/1999/xlink">
    <!-- Generator: Sketch 51.3 (57544) - http://www.bohemiancoding.com/sketch -->
    <title>Shape</title>
    <desc>Created with Sketch.</desc>
    <defs></defs>
    <g id="Design" stroke="none" stroke-width="1" fill="none" fill-rule="evenodd" opacity="0.973660714">
        <g id="Home" transform="translate(-673.000000, -2521.000000)" fill="#D92D27" fill-rule="nonzero">
            <g id="03_Podcasts" transform="translate(-2.000000, 2127.000000)">
                <g id="Podcast-Banner,-CTA,-Three-Cards">
                    <g id="Main-Blog" transform="translate(146.506944, 251.000000)">
                        <g id="Content">
                            <path d="M547.641838,144.464767 L547.32531,144.040756 C547.167153,144.067352 547.01135,144.101685 546.858848,144.143547 L543.843501,145.351337 C543.660248,145.42843 543.476995,145.479826 543.34372,145.351337 C543.469818,145.250488 543.571388,145.132981 543.643589,145.004419 C543.643589,144.888779 543.643589,144.77314 543.776864,144.683198 C544.603887,144.12232 545.522372,143.647175 546.509001,143.269826 C546.509001,143.269826 546.625616,143.154186 546.79221,143 C545.524387,143.387173 544.303488,143.860143 543.143808,144.413372 C542.806625,144.591637 542.443111,144.738291 542.060948,144.850233 C541.734856,144.884906 541.404137,144.884906 541.078045,144.850233 L541.078045,145.235698 C540.811495,145.004419 540.744858,144.6575 540.311714,144.490465 C539.751591,144.686811 539.243289,144.961237 538.812371,145.299942 C538.676314,145.410815 538.503458,145.490806 538.312589,145.531221 C537.293717,145.84378 536.222306,146.042795 535.130649,146.122267 C535.130649,146.122267 534.997374,146.122267 534.897418,146.237907 L535.347221,146.75186 C534.819881,146.944112 534.208624,146.944112 533.681284,146.75186 C533.797899,147.175872 533.797899,147.175872 533.298118,147.317209 L533.198162,147.317209 C533.031568,147.227267 532.864974,147.08593 532.7317,147.111628 C532.245617,147.265999 531.724711,147.344604 531.199037,147.342907 L531.065762,147.42 C531.055203,147.531208 531.055203,147.642862 531.065762,147.75407 C531.060313,147.813957 531.060313,147.874066 531.065762,147.933953 L531.715478,148.036744 C531.809096,148.050021 531.905069,148.050021 531.998687,148.036744 L532.231918,148.036744 L531.38229,148.319419 C531.512788,148.697957 531.31065,149.098108 530.882509,149.308779 C530.562351,149.506518 530.276764,149.73542 530.032881,149.989767 C529.798929,150.34514 529.441273,150.643235 529,150.85064 C529,150.85064 529,150.95343 529,151.004826 C529.820206,150.578278 530.858636,150.487157 531.782115,150.760698 L532.131962,150.760698 C532.348534,150.760698 532.44849,150.760698 532.44849,150.95343 L532.331875,150.95343 C532.165281,150.95343 531.982028,150.95343 531.798775,150.95343 C531.615522,150.95343 531.565543,151.081919 531.465587,151.159012 C531.365631,151.236105 531.315653,151.313198 531.365631,151.40314 C531.266225,151.414576 531.165168,151.414576 531.065762,151.40314 C531.060389,151.499269 531.037968,151.594378 530.999125,151.685814 L530.882509,151.852849 C530.499434,151.856486 530.124955,151.940912 529.79965,152.096977 C529.79965,152.186919 529.79965,152.27686 529.79965,152.328256 C529.9611,152.400145 530.127994,152.464505 530.299431,152.520988 C530.166156,152.649477 530.166156,152.700872 530.299431,152.790814 L530.499344,152.855058 C530.492758,152.92778 530.492758,153.000767 530.499344,153.073488 C530.499344,153.433256 530.366069,153.805872 530.299431,154.152791 L531.682159,154.589651 L531.249015,155.103605 C531.660675,155.338064 532.174653,155.439473 532.681721,155.386279 C533.250287,155.351397 533.822178,155.403803 534.364318,155.540465 C535.158588,155.821645 536.022604,155.966321 536.896543,155.964477 C537.01643,155.938725 537.143162,155.938725 537.263049,155.964477 C537.917335,156.12232 538.594383,156.217263 539.278833,156.247151 C539.970441,156.427317 540.719625,156.427317 541.411233,156.247151 C541.577826,156.247151 541.811058,156.247151 542.01097,156.247151 C542.893675,156.381867 543.794284,156.433639 544.693129,156.401337 L545.526098,156.401337 C545.604235,156.433317 545.697852,156.433317 545.775988,156.401337 C546.267103,156.398837 546.757587,156.428928 547.242013,156.491279 C547.522233,156.524894 547.808941,156.502781 548.074982,156.427035 C548.842331,156.191912 549.709196,156.253995 550.407294,156.59407 C550.690503,156.722558 550.707163,156.902442 550.823778,157.069477 C550.307338,156.799651 549.740919,156.940988 549.157841,156.92814 C547.965366,156.864032 546.768551,156.864032 545.576076,156.92814 C545.47612,156.92814 545.376163,156.8125 545.292867,156.8125 C544.309964,156.8125 543.327061,156.8125 542.360817,156.8125 C542.122311,156.825085 541.88297,156.825085 541.644464,156.8125 C541.644464,156.8125 541.644464,156.8125 541.644464,156.8125 C541.644464,156.8125 541.461211,156.8125 541.377914,156.876744 C541.225101,156.912355 541.094636,156.99011 541.011408,157.095174 C540.528286,156.902442 539.87857,157.300756 539.445427,156.851047 C539.445427,156.786802 539.145558,156.851047 539.012283,156.851047 C538.879008,156.851047 538.712414,156.979535 538.579139,156.979535 L536.629993,156.851047 L536.779927,156.851047 C537.033962,156.743304 537.2788,156.623136 537.51294,156.491279 C537.112728,156.569811 536.730621,156.695495 536.380102,156.863895 L535.497155,156.825349 C535.147309,156.825349 535.36388,156.491279 535.147309,156.414186 C534.930737,156.337093 534.430956,156.414186 534.197724,156.658314 C533.847877,156.658314 533.481371,156.555523 533.148184,156.748256 C533.142715,156.778088 533.142715,156.808365 533.148184,156.838198 C533.148184,156.966686 533.148184,157.082326 533.148184,157.210814 C533.264799,157.442093 533.597987,157.58343 533.697943,157.442093 C533.919839,157.117979 534.426193,156.978502 534.864099,157.120872 C536.367998,157.411768 537.911646,157.562746 539.462086,157.570581 C540.744858,157.660523 542.060948,157.647674 543.360379,157.647674 C544.276645,157.647674 545.19291,157.647674 546.109176,157.724767 L546.225791,157.724767 C546.225791,157.724767 546.225791,157.724767 546.225791,157.724767 C547.158716,157.724767 548.108301,157.789012 549.057885,157.724767 C549.965194,157.655336 550.881349,157.720762 551.756703,157.9175 C552.062606,158.320723 552.39627,158.711029 552.756266,159.086744 C554.039037,160.371628 555.338468,161.56657 556.6379,162.800058 C556.821605,162.985658 557.054446,163.13896 557.320934,163.249767 C557.852932,163.407786 558.319324,163.67424 558.670343,164.020698 C559.099969,164.399317 559.556,164.759617 560.036412,165.1 L560.036412,164.868721 C560.036412,164.868721 560.036412,164.945814 560.036412,164.971512 L560.036412,164.843023 C559.49483,164.266849 558.881026,163.733191 558.203881,163.249767 C557.776294,162.958523 557.380674,162.640501 557.021065,162.298953 C555.754953,161.155407 554.5055,159.986163 553.222728,158.842616 C552.74433,158.44976 552.395747,157.973761 552.206506,157.454942 L553.322684,157.609128 L553.039475,158.03314 C553.702373,157.991879 554.341483,158.233412 554.705412,158.662733 C555.105237,159.048198 555.871568,159.13814 556.054821,159.69064 C556.054821,159.69064 556.188096,159.767733 556.271393,159.79343 C557.229171,160.142982 558.038136,160.695604 558.603706,161.386686 C558.863384,161.688526 559.300212,161.87142 559.769862,161.874942 L558.820277,161.078314 C558.431704,160.849273 558.084363,160.58138 557.787396,160.281686 C557.454356,159.888281 557.044084,159.537174 556.571262,159.24093 L555.854909,158.726977 C555.778428,158.655347 555.747834,158.560962 555.771612,158.47 C555.771612,158.392907 555.921546,158.290116 556.021503,158.290116 C556.753331,158.196222 557.504911,158.2816 558.170562,158.534244 L557.220978,158.637035 C557.308172,158.745714 557.455933,158.816941 557.620803,158.829767 C558.187221,158.829767 558.75364,158.829767 559.28674,158.945407 C560.397365,159.099593 561.546861,159.279477 562.73523,159.485058 C562.994752,159.561894 563.23661,159.670346 563.451583,159.806279 C563.901386,159.652093 564.31787,159.806279 564.751014,159.90907 C566.900073,160.050407 569.032473,160.24314 571.181532,160.384477 C571.862605,160.495432 572.566221,160.495432 573.247294,160.384477 C573.438498,160.320116 573.655828,160.320116 573.847032,160.384477 C574.213538,160.551512 574.446769,160.384477 574.729978,160.255988 C575.013188,160.1275 575.379694,160.255988 575.529628,159.973314 L574.530066,159.639244 C575.768284,159.660635 577.003524,159.742172 578.228447,159.883372 C578.042861,159.713353 577.78125,159.603295 577.495434,159.575 C576.845719,159.497907 576.212663,159.395116 575.562947,159.292326 C575.404865,159.262414 575.253321,159.214796 575.113144,159.150988 C575.053827,159.112336 575.01769,159.056593 575.013188,158.996802 C575.013188,158.919709 575.013188,158.791221 575.179781,158.765523 C575.371985,158.733947 575.570656,158.733947 575.76286,158.765523 C576.595828,158.894012 577.428797,158.881163 578.295084,158.983953 C579.699005,159.161926 581.120609,159.243621 582.543224,159.228081 C583.029142,159.256198 583.51289,159.303371 583.99259,159.369419 C584.459052,159.369419 584.958833,159.369419 585.425296,159.369419 C586.724727,159.485058 588.024158,159.613547 589.29027,159.819128 C591.17813,160.071165 593.088707,160.20864 595.004435,160.230291 C595.221007,160.230291 595.437579,160.076105 595.654151,160.088953 C595.934677,160.123258 596.208779,160.18366 596.47046,160.268837 C596.47046,160.268837 596.553757,160.268837 596.587076,160.268837 L599.13596,160.525814 C599.285894,160.525814 599.519125,160.525814 599.585763,160.628605 C599.842021,160.928108 600.329267,161.055138 600.768578,160.936977 C601.46156,160.890541 602.159479,160.956185 602.817681,161.129709 C603.283688,161.212334 603.757004,161.268166 604.233728,161.296744 C605.005829,161.315381 605.772173,161.40598 606.516062,161.56657 C607.781536,161.820642 609.075871,161.979851 610.381036,162.041977 L612.896602,162.183314 C612.896602,161.656512 613.413042,161.66936 613.929483,161.733605 C614.445923,161.797849 615.128957,161.913488 615.728695,162.00343 C615.811992,162.00343 615.911948,162.00343 616.078542,161.926337 C614.751313,161.467769 613.29777,161.269154 611.847061,161.34814 L612.630052,161.733605 C612.330183,161.733605 612.14693,161.836395 612.046974,161.733605 C611.831868,161.646071 611.644221,161.523273 611.497214,161.373837 C611.256506,161.076196 610.850313,160.881581 610.397696,160.847035 C610.397696,160.847035 610.297739,160.705698 610.214443,160.577209 C610.914136,160.577209 611.513874,160.577209 612.13027,160.68 C612.41348,160.68 612.68003,160.769942 612.963239,160.79564 L614.179373,160.885581 C614.261651,160.757742 614.458779,160.701431 614.629176,160.757093 C614.996365,160.636404 615.411484,160.636404 615.778673,160.757093 L615.312211,160.975523 C615.399264,161.023938 615.494567,161.062851 615.59542,161.091163 L618.760701,161.425233 L619.227163,160.962674 C619.414728,161.057502 619.616002,161.13512 619.826901,161.193953 C620.609891,161.309593 621.492838,161.386686 622.209191,161.502326 C623.231981,161.685721 624.27516,161.793284 625.324494,161.823547 C625.417906,161.513702 625.298362,161.188573 625.007966,160.962674 L622.092575,160.474419 C621.992619,160.474419 621.876003,160.474419 621.776047,160.56436 L621.559475,160.56436 L621.459519,160.56436 C621.459519,160.56436 621.459519,160.487267 621.459519,160.487267 C621.537056,160.481079 621.615214,160.481079 621.69275,160.487267 C621.341613,160.409726 620.985792,160.345406 620.626551,160.294535 C619.84356,160.166047 618.960613,160.076105 618.26092,159.973314 C617.623582,159.950882 617.024083,159.733566 616.594982,159.369419 C616.411516,159.190328 616.086101,159.141222 615.828651,159.253779 C615.828651,159.395116 615.678717,159.536453 615.445486,159.523605 C614.148158,159.496462 612.862927,159.323317 611.630489,159.009651 C610.943873,158.81162 610.243015,158.644307 609.531408,158.508547 C609.198395,158.397952 608.852559,158.31191 608.498527,158.25157 C607.948768,158.25157 607.36569,158.25157 606.83259,158.174477 C606.512126,158.123254 606.179825,158.200625 605.949643,158.380058 C605.740577,158.495862 605.459015,158.495862 605.249949,158.380058 C603.955902,158.001484 602.608174,157.742698 601.235041,157.609128 C600.888893,157.52277 600.531241,157.466739 600.168841,157.442093 C599.76982,157.445825 599.375514,157.375306 599.019344,157.236512 C598.594299,157.131993 598.210367,156.946369 597.903166,156.69686 C597.80321,156.59407 597.553319,156.581221 597.386725,156.516977 C596.770329,156.298547 596.037316,156.349942 595.487557,156.003023 C595.858587,155.926116 596.249365,155.926116 596.620394,156.003023 L597.78655,156.131512 L598.136397,155.7075 L597.986463,155.82314 C597.983428,155.797495 597.983428,155.771691 597.986463,155.746047 C598.040936,155.708719 598.102802,155.678354 598.169716,155.656105 C598.768381,155.883313 599.446143,155.955415 600.102203,155.861686 C600.005946,155.790151 599.892856,155.733457 599.769016,155.694651 L595.520876,155.013663 C595.337623,155.013663 595.13771,154.93657 595.13771,154.743837 L599.302553,155.334884 C600.268797,155.476221 601.218381,155.643256 602.167965,155.771744 L606.266171,156.298547 C606.494064,156.344949 606.716875,156.405096 606.932546,156.47843 L607.448987,156.542674 L607.998746,156.606919 L610.630927,156.825349 C612.13977,156.865852 613.640253,157.016427 615.112298,157.275058 C616.778235,157.58343 618.444173,157.737616 620.11011,157.968895 L624.341591,158.547093 C624.614665,158.593963 624.882154,158.658433 625.141241,158.739826 C625.849724,158.924633 626.610426,158.955746 627.340278,158.829767 L627.340278,158.752674 C627.302675,158.741839 627.261265,158.741839 627.223662,158.752674 L623.658556,158.045988 C623.658556,158.045988 623.658556,158.045988 623.658556,158.045988 L623.658556,157.981744 L625.324494,157.814709 C624.974647,157.711919 624.541503,157.660523 624.341591,157.467791 C624.096897,157.229467 623.719201,157.095754 623.325369,157.108023 C622.808928,157.108023 622.309147,157.03093 621.792707,156.992384 C621.898826,157.036264 621.999243,157.087896 622.092575,157.14657 C622.192532,157.236512 622.275828,157.339302 622.392444,157.454942 C622.059257,157.660523 621.726069,157.544884 621.44286,157.454942 C620.513957,157.224386 619.560765,157.056717 618.594107,156.953837 C618.37473,156.913084 618.162272,156.852714 617.961051,156.773953 C618.098846,156.755483 618.23974,156.755483 618.377535,156.773953 C619.160526,156.863895 619.960176,156.92814 620.726507,157.069477 C621.070216,157.140953 621.432338,157.140953 621.776047,157.069477 C621.163445,156.895196 620.525756,156.778711 619.876879,156.722558 C619.210504,156.722558 618.577448,156.414186 617.877754,156.568372 L617.877754,156.863895 L617.078104,156.953837 C616.92817,156.953837 616.744917,156.889593 616.628301,156.953837 C615.678717,157.24936 614.812429,156.876744 613.929483,156.748256 C613.72957,156.748256 613.929483,156.606919 613.929483,156.542674 C613.743193,156.383913 613.473619,156.298858 613.19647,156.311395 L609.331496,155.835988 C609.148243,155.835988 608.915011,155.835988 608.881693,155.566163 C608.96499,155.566163 609.081605,155.463372 609.181561,155.463372 L612.513436,155.681802 C612.8406,155.700944 613.169175,155.700944 613.496339,155.681802 C613.879505,155.681802 614.312648,155.681802 614.562539,155.257791 C613.74623,154.872326 612.613392,155.013663 611.813742,154.38407 C612.70434,154.404582 613.590795,154.486281 614.462583,154.628198 C614.462583,154.461163 614.462583,154.345523 614.462583,154.217035 C614.462583,154.088547 614.462583,154.024302 614.562539,153.882965 L613.796208,153.882965 L613.229789,153.625988 L613.646273,153.356163 L612.346842,153.189128 L611.263983,153.047791 C609.88671,152.754765 608.474619,152.569661 607.049162,152.495291 C606.684575,152.48326 606.324741,152.426887 605.982962,152.328256 C605.601962,152.21667 605.181146,152.21667 604.800146,152.328256 C604.03404,152.546941 603.207572,152.608913 602.401197,152.50814 L600.868534,152.379651 L600.868534,152.880756 C600.631807,152.718245 600.29602,152.673421 600.002247,152.765116 C600.951831,153.124884 602.068009,153.034942 603.000934,153.433256 C602.184625,153.433256 601.334997,153.343314 600.568666,153.27907 C599.235916,153.16343 597.903166,153.034942 596.553757,152.957849 C595.543644,152.851397 594.550114,152.666285 593.588388,152.405349 C593.121926,152.302558 592.672123,152.135523 592.20566,152.05843 C591.006186,151.865698 589.806711,151.698663 588.590577,151.557326 C588.151951,151.48022 587.696452,151.48022 587.257827,151.557326 C586.748561,151.65122 586.217771,151.65122 585.708505,151.557326 C585.344211,151.533364 584.982433,151.490436 584.625646,151.428837 C583.268256,151.269212 581.934599,151.006681 580.644056,150.645058 C580.523181,150.625661 580.398424,150.625661 580.27755,150.645058 C579.008857,150.508621 577.773606,150.227139 576.612488,149.809884 C576.844533,149.78423 577.080136,149.78423 577.312181,149.809884 L580.477462,150.054012 C580.723118,150.131143 580.998137,150.131143 581.243793,150.054012 C580.446729,149.87164 579.684781,149.608054 578.978118,149.270233 L579.677812,149.116047 L578.978118,149.270233 C578.66716,149.028366 578.252574,148.882192 577.811962,148.85907 C575.74722,148.624348 573.66713,148.478502 571.581357,148.422209 L571.997841,148.807674 C571.364785,148.807674 570.731729,148.730581 570.098673,148.717733 C568.136945,148.700912 566.180674,148.55476 564.251233,148.280872 C563.93171,148.236597 563.604513,148.236597 563.284989,148.280872 C562.358627,148.41034 561.40583,148.370737 560.502874,148.165233 C558.945758,147.911438 557.3624,147.765239 555.771612,147.728372 C555.205031,147.753052 554.637932,147.687444 554.105675,147.53564 C554.105675,147.407151 554.105675,147.214419 553.989059,147.240116 C553.589234,147.381453 553.4393,146.995988 553.089453,147.008837 C552.77089,147.012948 552.452639,146.991416 552.139869,146.944593 C552.139869,146.944593 552.056572,146.854651 551.956616,146.75186 C552.537832,146.701034 553.124634,146.701034 553.70585,146.75186 C554.526323,146.814852 555.354807,146.744826 556.138118,146.546279 C556.374078,146.506215 556.618512,146.506215 556.854471,146.546279 C558.520409,146.636221 560.186346,146.75186 561.752327,146.828953 C562.947596,146.923877 564.149653,146.958214 565.350752,146.931744 C564.585284,146.670055 563.755719,146.538586 562.918483,146.546279 C561.771531,146.545235 560.637217,146.361515 559.586609,146.006628 C559.195958,145.811435 558.681352,145.854343 558.353815,146.109419 C558.353815,146.109419 558.187221,146.109419 558.120584,146.109419 L557.837374,145.775349 C556.991707,145.824587 556.141325,145.763777 555.321809,145.595465 C555.171875,145.595465 554.988622,145.518372 555.121897,145.299942 C555.271707,145.30659 555.421889,145.30659 555.5717,145.299942 C556.004843,145.299942 556.454646,145.299942 556.787834,144.965872 C557.121021,144.631802 557.354253,144.965872 557.604143,144.965872 C557.787396,144.734593 557.887352,144.43907 558.120584,144.336279" id="Shape"></path>
                        </g>
                    </g>
                </g>
            </g>
        </g>
    </g>
</svg>