<?xml version="1.0" encoding="UTF-8"?>
<svg width="94px" height="94px" viewBox="0 0 94 94" version="1.1" xmlns="http://www.w3.org/2000/svg" xmlns:xlink="http://www.w3.org/1999/xlink">
    <!-- Generator: Sketch 51.3 (57544) - http://www.bohemiancoding.com/sketch -->
    <title>Tiny Pixel Logo</title>
    <desc>Created with Sketch.</desc>
    <defs>
        <polygon id="path-1" points="0.215021739 0.456030556 9.73154348 0.456030556 9.73154348 13.7083333 0.215021739 13.7083333"></polygon>
    </defs>
    <g id="Page-1" stroke="none" stroke-width="1" fill="none" fill-rule="evenodd" opacity="0.889229911">
        <g id="COVER" transform="translate(-103.000000, -547.000000)">
            <g id="Tiny-Pixel-Logo" style="mix-blend-mode: hard-light;" transform="translate(103.000000, 547.000000)">
                <polygon id="Fill-1" fill="#000000" points="43 50 48 50 48 45 43 45"></polygon>
                <polygon id="Fill-2" fill="#000000" points="20.2171152 84.9301075 19.3152265 86 13 80.6229839 13.9018887 79.5530914 16.5213104 81.7822581 23.9216112 73 25 73.9173387 17.5990306 82.7009409"></polygon>
                <polygon id="Fill-3" fill="#000000" points="8.63252739 71.6185651 16.638504 66.2064769 15.1165444 63.7506492 16.2258444 63 20 69.0872753 18.8894322 69.8379245 17.3668387 67.3814349 9.3602282 72.7928611 10.8840895 75.2493508 9.77352169 76 6 69.9127247 7.10993389 69.1627374"></polygon>
                <polygon id="Fill-4" fill="#000000" points="12.8016529 53 13.1762477 54.2953557 5.33596639 61.9813881 14.6260445 59.3077637 15 60.6031194 3.19834711 64 2.82375234 62.7046443 10.6640336 55.0179741 1.37459477 57.6915985 1 56.3968806"></polygon>
                <polygon id="Fill-5" fill="#000000" points="0.0848704663 43.55874 6.31746114 47.054076 0.0161658031 50.4419359 0 52 7.82694301 47.793565 12.9851813 47.8456131 13 46.4173314 7.85927461 46.3652832 0.100362694 42"></polygon>
                <g id="Group-37" transform="translate(4.000000, 0.000000)">
                    <path d="M3.68973913,24.1621125 L2.36582609,26.4801264 L6.65517391,28.9352236 L7.97908696,26.6172097 C8.93908696,24.9369597 8.32213043,23.7789319 7.14104348,23.1026542 C5.95930435,22.4270292 4.64973913,22.4818625 3.68973913,24.1621125 M9.16082609,27.2928347 L7.83626087,29.6115014 L12.0636522,32.0300431 L11.3795217,33.2278903 L0.499956522,27.0016958 L2.50865217,23.4858347 C3.948,20.9661125 5.9156087,20.7709319 7.84278261,21.8741264 C9.76995652,22.9766681 10.6001739,24.7731125 9.16082609,27.2928347" id="Fill-6" fill="#000000"></path>
                    <polygon id="Fill-8" fill="#000000" points="12.1406087 13.6434472 18.8977826 20.7619889 20.9873478 18.7749333 21.9251739 19.7619333 16.7462609 24.6864889 15.809087 23.6994889 17.8986522 21.7124333 11.1414783 14.5938917 9.05191304 16.5809472 8.11473913 15.5939472 13.293 10.6687389 14.2301739 11.6563917"></polygon>
                    <polygon id="Fill-10" fill="#000000" points="24.479087 3.9662125 25.8388696 3.28210139 25.4038696 10.2785736 31.7045217 14.3695319 30.2971304 15.0771431 25.038 11.6259069 24.6662609 17.9088931 23.2582174 18.6171569 23.7401739 11.1154347 17.8725652 7.28885139 19.2323478 6.60474028 24.1301739 9.81640694"></polygon>
                    <polygon id="Fill-12" fill="#000000" points="34.7444348 12.3697472 40.4033478 11.3742611 40.6387826 12.7144139 33.6220435 13.9494694 31.4522609 1.59760833 38.4696522 0.362552778 38.705087 1.70401111 33.0461739 2.69949722 33.7648696 6.79306667 38.1898696 6.01495556 38.4253043 7.35576111 34.0003043 8.13387222"></polygon>
                    <polygon id="Fill-14" fill="#000000" points="45.1677391 0.243029167 46.5366522 0.406876389 45.2088261 11.5080153 50.9146957 12.1914736 50.7529565 13.5433764 43.6788261 12.6960708"></polygon>
                    <path d="M71.1076304,14.3532778 L69.9839348,13.5542778 C70.8311087,12.1122917 70.4241522,10.7682222 69.2861087,9.95877778 C68.0750217,9.09776389 66.5411087,9.21591667 65.4415435,10.7643056 L62.8915435,14.3585 C61.7932826,15.9068889 62.1858913,17.3952222 63.3976304,18.2562361 C64.5363261,19.0656806 65.9385,19.0075833 67.0191522,17.7327083 L68.1428478,18.5310556 C66.6271957,20.4208472 64.4776304,20.6950139 62.6098043,19.3666111 C60.654587,17.9761944 60.2443696,15.7064861 61.7685,13.5595 L64.3185,9.96595833 C65.8426304,7.81831944 68.1180652,7.45798611 70.0739348,8.84905556 C71.9417609,10.1768056 72.3911087,12.2983333 71.1076304,14.3532778" id="Fill-16" fill="#000000"></path>
                    <path d="M78.4101522,23.3327583 C79.9199348,22.1819111 79.9877609,20.6433139 79.0871087,19.4604806 C78.1871087,18.2769944 76.6871087,17.9336333 75.1779783,19.0838278 L71.6738478,21.7549944 C70.163413,22.9064944 70.0968913,24.4444389 70.9968913,25.627925 C71.8981957,26.8114111 73.3968913,27.1547722 74.9066739,26.003925 L78.4101522,23.3327583 Z M75.7414565,27.1012444 C73.6479783,28.6979389 71.3686304,28.3637167 69.9149348,26.4530361 C68.4612391,24.5430083 68.7449348,22.2537167 70.8390652,20.657675 L74.3425435,17.9865083 C76.4360217,16.3898139 78.7166739,16.7246889 80.1697174,18.6353694 C81.623413,20.5453972 81.3390652,22.8340361 79.245587,24.4307306 L75.7414565,27.1012444 Z" id="Fill-18" fill="#000000"></path>
                    <polygon id="Fill-20" fill="#000000" points="85.655413 28.0523417 86.1243261 29.3500639 75.6178043 33.1524944 77.5723696 38.5620639 76.2934565 39.0248833 73.8699783 32.3182444"></polygon>
                    <polygon id="Fill-22" fill="#000000" points="89.3608043 41.6433708 89.4253696 43.0213847 78.2647174 43.5462181 78.5340652 49.2926208 77.1749348 49.3559403 76.8410217 42.2315236"></polygon>
                    <polygon id="Fill-24" fill="#000000" points="77.8076739 53.8026625 76.4009348 59.3786903 75.081587 59.0451208 76.8268043 52.1308986 88.9768043 55.2028708 87.231587 62.1177458 85.9122391 61.7841764 87.3196304 56.2074958 83.2931087 55.1891625 82.1928913 59.5497181 80.8728913 59.2161486 81.9737609 54.8555931"></polygon>
                    <path d="M77.6306087,72.7003833 L78.3388696,71.5168972 C79.8408261,72.2506194 81.1484348,71.7394944 81.8658261,70.5409944 C82.6295217,69.2648139 82.3921304,67.7438417 80.7649565,66.7679389 L76.986913,64.5021472 C75.3597391,63.5255917 73.9073478,64.0334528 73.1436522,65.3096333 C72.4262609,66.5087861 72.5925652,67.9037722 73.9471304,68.8829389 L73.2388696,70.0670778 C71.2393043,68.7001611 70.7984348,66.5773278 71.9762609,64.6098556 C73.2095217,62.5503417 75.438,61.9648 77.6951739,63.3186611 L81.4732174,65.5844528 C83.7310435,66.9376611 84.2658261,69.1812583 83.0332174,71.2407722 C81.8553913,73.2082444 79.7775652,73.8212028 77.6306087,72.7003833" id="Fill-26" fill="#000000"></path>
                    <polygon id="Fill-28" fill="#000000" points="76.3727609 77.8936222 77.2890652 78.9002056 71.3242826 84.3443722 70.4079783 83.3377889 72.8810217 81.0804833 65.3549348 72.8195806 66.3736304 71.890025 73.8997174 80.1509278"></polygon>
                    <polygon id="Fill-30" fill="#000000" points="61.7746304 88.3205069 57.5511522 79.4564375 54.9489783 80.6993264 54.3633261 79.4694931 60.8107174 76.3909931 61.3970217 77.6201736 58.7961522 78.8630625 63.0189783 87.7264792 65.6205 86.4842431 66.2068043 87.7134236 59.7587609 90.7919236 59.1731087 89.5627431"></polygon>
                    <g id="Group-34" transform="translate(45.000000, 80.291667)">
                        <mask id="mask-2" fill="white">
                            <use xlink:href="#path-1"></use>
                        </mask>
                        <g id="Clip-33"></g>
                        <polygon id="Fill-32" fill="#000000" mask="url(#mask-2)" points="1.59436957 13.4939611 0.215021739 13.708725 2.27654348 0.696905556 3.83328261 0.456030556 9.73154348 12.2321417 8.35154348 12.4462528 3.34806522 2.47115556"></polygon>
                    </g>
                    <polygon id="Fill-35" fill="#000000" points="39.8917826 82.5723417 34.2002609 81.7726889 34.3893913 80.42405 41.445913 81.4156194 39.7039565 93.8373278 32.6474348 92.8457583 32.8365652 91.4971194 38.528087 92.2967722 39.1052609 88.1803556 34.6554783 87.5549944 34.8446087 86.2057028 39.2943913 86.8310639"></polygon>
                </g>
            </g>
        </g>
    </g>
</svg>